<svg xmlns="http://www.w3.org/2000/svg" viewBox="0 0 136.40867 142.12676"><title>registry-box3</title><rect x="1.16126" y="1.16126" width="134.08614" height="139.80424" rx="11.08574" ry="11.08574" style="fill:#23fdd8"/><rect x="1.16126" y="1.16126" width="134.08614" height="139.80424" rx="11.08574" ry="11.08574" style="fill:none;stroke:#2d398f;stroke-linecap:round;stroke-linejoin:round;stroke-width:2.32252464294434px"/><line x1="135.18748" y1="94.63862" x2="1.22119" y2="94.63862" style="fill:none;stroke:#2d398f;stroke-linecap:round;stroke-linejoin:round;stroke-width:2.32252464294434px"/><path d="M24.67909,109.10129H62.23917a8.342,8.342,0,0,1,8.342,8.342v0a8.342,8.342,0,0,1-8.342,8.342H24.67909a8.342,8.342,0,0,1-8.342-8.342v0a8.342,8.342,0,0,1,8.342-8.342Z" style="fill:#fff"/><circle cx="86.98419" cy="117.44311" r="8.34218" style="fill:#fff"/><circle cx="111.72939" cy="117.44311" r="8.34218" style="fill:#fff"/><rect x="53.08492" y="33.74005" width="31.40935" height="60.84416" style="fill:#fff"/><path d="M53.04421,33.54494V25.55889a15.7028,15.7028,0,1,1,31.4056,0v7.98606" style="fill:#fff"/><rect x="53.08492" y="48.60475" width="3.8383" height="45.97945" style="fill:#82f6f9"/><rect x="64.25673" y="34.58204" width="3.8383" height="14.02271" style="fill:#82f6f9"/><rect x="53.08492" y="48.60475" width="23.97767" height="4.20325" style="fill:#82f6f9"/><rect x="53.08492" y="55.82262" width="31.40935" height="4.76749" style="fill:#82f6f9"/><rect x="53.08492" y="55.82262" width="31.40935" height="38.76159" style="fill:none;stroke:#2d398f;stroke-linecap:round;stroke-linejoin:round;stroke-width:2.32252464294434px"/><rect x="53.08492" y="33.74005" width="31.40935" height="22.08257" style="fill:none;stroke:#2d398f;stroke-linecap:round;stroke-linejoin:round;stroke-width:2.32252464294434px"/><line x1="53.08492" y1="55.82262" x2="91.78572" y2="55.82262" style="fill:none;stroke:#2d398f;stroke-linecap:round;stroke-linejoin:round;stroke-width:2.32252464294434px"/><line x1="53.08492" y1="48.60475" x2="77.06259" y2="48.60475" style="fill:none;stroke:#2d398f;stroke-linecap:round;stroke-linejoin:round;stroke-width:2.32252464294434px"/><line x1="68.78959" y1="33.74005" x2="68.78959" y2="48.60475" style="fill:none;stroke:#2d398f;stroke-linecap:round;stroke-linejoin:round;stroke-width:2.32252464294434px"/><line x1="60.2912" y1="55.82262" x2="60.2912" y2="94.58421" style="fill:none;stroke:#2d398f;stroke-linecap:round;stroke-linejoin:round;stroke-width:2.32252464294434px"/><rect x="75.06579" y="63.53474" width="5.67758" height="9.25454" style="fill:#82f6f9"/><circle cx="67.6785" cy="68.16201" r="3.78595" style="fill:#2d398f"/><line x1="75.06579" y1="72.78928" x2="80.74337" y2="72.78928" style="fill:none;stroke:#2d398f;stroke-linecap:round;stroke-linejoin:round;stroke-width:2.32252464294434px"/><rect x="64.74606" y="80.5014" width="5.67758" height="9.25454" transform="translate(135.1697 170.25735) rotate(-180)" style="fill:#82f6f9"/><line x1="70.42364" y1="89.75595" x2="64.74606" y2="89.75595" style="fill:none;stroke:#2d398f;stroke-linecap:round;stroke-linejoin:round;stroke-width:2.32252464294434px"/><rect x="75.06579" y="80.5014" width="5.67758" height="9.25454" transform="translate(155.80916 170.25735) rotate(-180)" style="fill:#82f6f9"/><line x1="80.74337" y1="89.75595" x2="75.06579" y2="89.75595" style="fill:none;stroke:#2d398f;stroke-linecap:round;stroke-linejoin:round;stroke-width:2.32252464294434px"/><path d="M53.04421,33.54494V25.55889a15.7028,15.7028,0,1,1,31.4056,0v7.98606" style="fill:none;stroke:#2d398f;stroke-linecap:round;stroke-linejoin:round;stroke-width:2.32252464294434px"/><circle cx="68.74701" cy="22.65622" r="6.56721" style="fill:#82f6f9"/><circle cx="70.21338" cy="21.56268" r="4.94874" style="fill:#fff"/><circle cx="68.74701" cy="22.65622" r="6.56721" style="fill:none;stroke:#2d398f;stroke-linecap:round;stroke-linejoin:round;stroke-width:2.32252464294434px"/><line x1="68.74701" y1="16.08901" x2="68.74701" y2="29.22343" style="fill:none;stroke:#2d398f;stroke-linecap:round;stroke-linejoin:round;stroke-width:2.32252464294434px"/><line x1="62.1798" y1="22.65623" x2="75.31422" y2="22.65623" style="fill:none;stroke:#2d398f;stroke-linecap:round;stroke-linejoin:round;stroke-width:2.32252464294434px"/></svg>