<?xml version="1.0" encoding="utf-8"?>
<!-- Generator: Adobe Illustrator 21.0.2, SVG Export Plug-In . SVG Version: 6.00 Build 0)  -->
<svg version="1.1" id="Layer_1" xmlns="http://www.w3.org/2000/svg" xmlns:xlink="http://www.w3.org/1999/xlink" x="0px" y="0px"
	 viewBox="0 0 820.9 391.4" style="enable-background:new 0 0 820.9 391.4;" xml:space="preserve">
<style type="text/css">
	.st0{fill:none;stroke:#2D398F;stroke-width:2.3225;stroke-linecap:round;stroke-linejoin:round;}
	.st1{fill:#2D398F;}
	.st2{fill:#7DF8FB;}
	.st3{fill:none;stroke:#2D398F;stroke-width:2.382;stroke-linecap:round;stroke-linejoin:round;}
	.st4{fill:#FFFFFF;}
	.st5{fill:#82F6F9;}
	.st6{fill:#23FDD8;}
	.st7{fill:none;stroke:#82F6F9;stroke-width:3.3;stroke-linecap:round;stroke-linejoin:round;}
	.st8{fill:none;stroke:#2D398F;stroke-width:1.5702;stroke-linecap:round;stroke-linejoin:round;}
	.st9{fill:none;stroke:#82F6F9;stroke-width:2.3898;stroke-linecap:round;stroke-linejoin:round;}
	.st10{fill:none;stroke:#2D398F;stroke-width:1.1371;stroke-linecap:round;stroke-linejoin:round;}
	.st11{fill:none;stroke:#2D398F;stroke-width:2.3225;stroke-linecap:round;stroke-linejoin:round;stroke-miterlimit:10;}
</style>
<title>registry-computer</title>
<g>
	<line class="st0" x1="49.7" y1="344.9" x2="40.8" y2="344.9"/>
	<line class="st0" x1="678.5" y1="344.9" x2="669.6" y2="344.9"/>
	<line class="st0" x1="796.1" y1="344.9" x2="787.2" y2="344.9"/>
	<path class="st1" d="M640.9,220.2H414.2c-8.8,0-15.9,7.1-15.9,15.9l0,0c0,8.8,7.1,15.9,15.9,15.9h226.7"/>
	<path class="st1" d="M628.4,252H805c8.8,0,15.9-7.1,15.9-15.9l0,0c0-8.8-7.1-15.9-15.9-15.9H628.4"/>
	<circle class="st2" cx="413.8" cy="236.1" r="8.5"/>
	<circle class="st1" cx="413.8" cy="236.1" r="3.5"/>
	<circle class="st2" cx="479.1" cy="236.1" r="8.5"/>
	<circle class="st1" cx="479.1" cy="236.1" r="3.5"/>
	<circle class="st2" cx="544.4" cy="236.1" r="8.5"/>
	<circle class="st1" cx="544.4" cy="236.1" r="3.5"/>
	<circle class="st2" cx="609.7" cy="236.1" r="8.5"/>
	<circle class="st1" cx="609.7" cy="236.1" r="3.5"/>
	<circle class="st2" cx="675.1" cy="236.1" r="8.5"/>
	<circle class="st1" cx="675.1" cy="236.1" r="3.5"/>
	<circle class="st2" cx="740.4" cy="236.1" r="8.5"/>
	<circle class="st1" cx="740.4" cy="236.1" r="3.5"/>
	<circle class="st2" cx="805.7" cy="236.1" r="8.5"/>
	<circle class="st1" cx="805.7" cy="236.1" r="3.5"/>
	<line class="st3" x1="674.1" y1="252.1" x2="674.1" y2="344.8"/>
	<line class="st3" x1="673.9" y1="266.8" x2="663.1" y2="252.1"/>
	<line class="st3" x1="673.9" y1="266.8" x2="684.7" y2="252.1"/>
	<line class="st3" x1="791.6" y1="252.1" x2="791.6" y2="344.8"/>
	<line class="st3" x1="791.4" y1="266.8" x2="780.6" y2="252.1"/>
	<line class="st3" x1="791.4" y1="266.8" x2="802.3" y2="252.1"/>
	<path class="st1" d="M166.8,148.7l203,68.1c7.9,2.7,12.1,11.2,9.5,19.1l0,0c-2.7,7.9-11.2,12.1-19.1,9.5l-203-68.1"/>
	<path class="st1" d="M168.4,181L10.3,128c-7.9-2.7-12.1-11.2-9.5-19.1l0,0c2.6-7.9,11.2-12.1,19-9.5L178,152.5"/>
	<ellipse transform="matrix(0.3182 -0.948 0.948 0.3182 29.8693 504.1651)" class="st2" cx="365.5" cy="231.3" rx="8" ry="8"/>
	<ellipse transform="matrix(0.3182 -0.948 0.948 0.3182 29.8694 504.1652)" class="st1" cx="365.5" cy="231.3" rx="3.3" ry="3.3"/>
	<ellipse transform="matrix(0.3182 -0.948 0.948 0.3182 8.5738 435.2416)" class="st2" cx="306.9" cy="211.7" rx="8" ry="8"/>
	<ellipse transform="matrix(0.3182 -0.948 0.948 0.3182 8.5739 435.2417)" class="st1" cx="306.9" cy="211.7" rx="3.3" ry="3.3"/>
	<ellipse transform="matrix(0.3182 -0.948 0.948 0.3182 -12.6871 366.4298)" class="st2" cx="248.4" cy="192" rx="8" ry="8"/>
	<ellipse transform="matrix(0.3182 -0.948 0.948 0.3182 -12.687 366.4299)" class="st1" cx="248.4" cy="192" rx="3.3" ry="3.3"/>
	<ellipse transform="matrix(0.3182 -0.948 0.948 0.3182 -33.9482 297.6179)" class="st2" cx="189.9" cy="172.4" rx="8" ry="8"/>
	<ellipse transform="matrix(0.3182 -0.948 0.948 0.3182 -33.9481 297.618)" class="st1" cx="189.9" cy="172.4" rx="3.3" ry="3.3"/>
	<ellipse transform="matrix(0.3182 -0.948 0.948 0.3182 -55.2437 228.6945)" class="st2" cx="131.4" cy="152.8" rx="8" ry="8"/>
	<ellipse transform="matrix(0.3182 -0.948 0.948 0.3182 -55.2436 228.6946)" class="st1" cx="131.4" cy="152.8" rx="3.3" ry="3.3"/>
	<ellipse transform="matrix(0.3182 -0.948 0.948 0.3182 -76.5047 159.8826)" class="st2" cx="72.9" cy="133.1" rx="8" ry="8"/>
	<ellipse transform="matrix(0.3182 -0.948 0.948 0.3182 -76.5046 159.8827)" class="st1" cx="72.9" cy="133.1" rx="3.3" ry="3.3"/>
	<ellipse transform="matrix(0.3182 -0.948 0.948 0.3182 -97.7657 91.0709)" class="st2" cx="14.4" cy="113.5" rx="8" ry="8"/>
	<ellipse transform="matrix(0.3182 -0.948 0.948 0.3182 -97.7656 91.071)" class="st1" cx="14.4" cy="113.5" rx="3.3" ry="3.3"/>
	<line class="st0" x1="224.7" y1="199.8" x2="224.7" y2="345.9"/>
	<line class="st0" x1="224.7" y1="217.7" x2="234.9" y2="203.8"/>
	<line class="st0" x1="224.7" y1="217.7" x2="207.2" y2="191.5"/>
	<line class="st0" x1="45.3" y1="134.5" x2="45.3" y2="344.7"/>
	<line class="st0" x1="45.3" y1="154.2" x2="55.5" y2="140.3"/>
	<line class="st0" x1="45.3" y1="154.2" x2="27.8" y2="128"/>
	<rect x="281.5" y="103.8" class="st4" width="184.1" height="240.9"/>
	<rect x="281.5" y="103.8" class="st5" width="6.7" height="240.9"/>
	<rect x="281.5" y="1.2" class="st4" width="184.1" height="102.6"/>
	<rect x="281.5" y="1.2" class="st5" width="6.7" height="102.6"/>
	<rect x="281.5" y="103.6" class="st5" width="184.1" height="6.7"/>
	<rect x="281.5" y="1.2" class="st0" width="184.1" height="102.6"/>
	<rect x="281.5" y="103.8" class="st0" width="184.1" height="240.9"/>
	<rect x="296.8" y="16.5" class="st0" width="153.6" height="72.1"/>
	<rect x="465.6" y="40.6" class="st4" width="11.8" height="231.8"/>
	<rect x="465.6" y="40.6" class="st5" width="5.9" height="231.8"/>
	<rect x="465.6" y="40.6" class="st0" width="11.8" height="231.8"/>
	<rect x="348" y="217.7" class="st6" width="97.8" height="62.1"/>
	<line class="st0" x1="348" y1="224.5" x2="445.8" y2="224.5"/>
	<rect x="303.1" y="233.9" class="st6" width="3.3" height="9.4"/>
	<rect x="329.4" y="233.9" class="st6" width="3.3" height="9.4"/>
	<rect x="306.6" y="217.1" class="st4" width="22.8" height="26.2"/>
	<rect x="306.6" y="217.1" class="st4" width="22.8" height="26.2"/>
	<rect x="306.6" y="217.1" class="st6" width="4.3" height="26.2"/>
	<rect x="306.4" y="217.1" class="st6" width="22.7" height="4.3"/>
	<rect x="306.6" y="217.1" class="st0" width="22.8" height="26.2"/>
	<line class="st0" x1="310.5" y1="222.5" x2="325.3" y2="222.5"/>
	<line class="st0" x1="310.5" y1="238" x2="325.3" y2="238"/>
	<line class="st0" x1="310.5" y1="232.8" x2="322.5" y2="232.8"/>
	<line class="st0" x1="310.5" y1="227.7" x2="318" y2="227.7"/>
	<line class="st0" x1="321.3" y1="227.7" x2="325.3" y2="227.7"/>
	<line class="st0" x1="303.1" y1="243.3" x2="332.8" y2="243.3"/>
	<path class="st6" d="M310.2,272.4c0-6.3,4.4-11.7,10.6-13c-7.2-1.5-14.2,3.2-15.7,10.3s3.2,14.2,10.3,15.7c1.8,0.4,3.6,0.4,5.3,0
		C314.7,284.1,310.2,278.7,310.2,272.4z"/>
	<line class="st0" x1="305.2" y1="272.4" x2="331.7" y2="272.4"/>
	<line class="st0" x1="317.7" y1="272.4" x2="312.9" y2="266.4"/>
	<circle class="st0" cx="318.4" cy="272.4" r="13.3"/>
	<path class="st6" d="M310.2,309.7c0-6.3,4.4-11.7,10.6-13c-7.2-1.5-14.2,3.2-15.7,10.3s3.2,14.2,10.3,15.7c1.8,0.4,3.6,0.4,5.3,0
		C314.7,321.4,310.2,316,310.2,309.7z"/>
	<line class="st0" x1="305.2" y1="309.7" x2="331.7" y2="309.7"/>
	<line class="st0" x1="317.7" y1="309.7" x2="321.3" y2="303.6"/>
	<circle class="st0" cx="318.4" cy="309.7" r="13.3"/>
	<rect x="348" y="292.7" class="st6" width="5.2" height="29.5"/>
	<rect x="348.1" y="293.2" class="st6" width="97.7" height="5.2"/>
	<rect x="348" y="292.7" class="st0" width="97.8" height="29.5"/>
	<circle class="st4" cx="263.8" cy="324" r="29.1"/>
	<path class="st5" d="M262.7,294.9h5.5c16.1,0,29.1,13,29.1,29.1s-13,29.1-29.1,29.1h-5.5"/>
	<path class="st4" d="M259.9,294.9h5.5c16.1,0,29.1,13,29.1,29.1s-13,29.1-29.1,29.1h-5.5"/>
	<line class="st0" x1="279.6" y1="299.6" x2="284.1" y2="299.6"/>
	<line class="st0" x1="285.9" y1="304.9" x2="289.7" y2="304.9"/>
	<line class="st0" x1="289.5" y1="310.2" x2="293.4" y2="310.2"/>
	<line class="st0" x1="291.6" y1="315.4" x2="295.7" y2="315.4"/>
	<line class="st0" x1="292.6" y1="320.7" x2="296.6" y2="320.7"/>
	<line class="st0" x1="292.8" y1="326" x2="296.6" y2="326"/>
	<line class="st0" x1="291.9" y1="331.3" x2="296.2" y2="331.3"/>
	<line class="st0" x1="290" y1="336.5" x2="294.4" y2="336.5"/>
	<line class="st0" x1="286.7" y1="341.8" x2="290.9" y2="341.8"/>
	<line class="st0" x1="281.4" y1="347.1" x2="285.9" y2="347.1"/>
	<path class="st5" d="M240.5,324.1c0-14.9,11.3-27.4,26.1-28.9c-1-0.1-1.9-0.1-2.9-0.1c-16,0-29,13-29,29s13,29,29,29
		c1,0,2,0,2.9-0.1C251.8,351.5,240.5,339,240.5,324.1z"/>
	<circle class="st0" cx="263.8" cy="324" r="26.7"/>
	<circle class="st0" cx="263.8" cy="324" r="29.1"/>
	<path class="st0" d="M262.7,294.9h5.5c16.1,0,29.1,13,29.1,29.1s-13,29.1-29.1,29.1h-5.5"/>
	<polygon class="st7" points="262.7,319.2 253.8,323.3 262.7,328.5 271.6,323.3 	"/>
	<polygon class="st7" points="253.9,323.3 262.8,328.5 262.8,319.2 262.8,308.6 	"/>
	<polygon class="st7" points="262.8,308.6 262.8,319.2 262.8,328.5 271.7,323.3 	"/>
	<polyline class="st7" points="253.8,326.8 262.7,339.3 262.7,332.1 	"/>
	<polyline class="st7" points="262.7,332.1 262.7,339.3 271.6,326.8 	"/>
	<polygon class="st8" points="262.7,319.2 253.8,323.3 262.7,328.5 271.6,323.3 	"/>
	<polygon class="st8" points="253.9,323.3 262.8,328.5 262.8,319.2 262.8,308.6 	"/>
	<polygon class="st8" points="262.8,308.6 262.8,319.2 262.8,328.5 271.7,323.3 	"/>
	<polyline class="st8" points="253.8,326.8 262.7,339.3 262.7,332.1 	"/>
	<polyline class="st8" points="262.7,332.1 262.7,339.3 271.6,326.8 	"/>
	<ellipse class="st4" cx="216.2" cy="346.9" rx="34.6" ry="11.2"/>
	<path class="st5" d="M187.6,346.9c0-5.9,13.9-10.7,31.6-11.1c-1,0-2,0-3,0c-19.1,0-34.6,5-34.6,11.2s15.5,11.2,34.6,11.2
		c1,0,2,0,3,0C201.5,357.6,187.6,352.8,187.6,346.9z"/>
	<path class="st5" d="M250.8,352.7c0,6.2-15.5,11.2-34.6,11.2s-34.6-5-34.6-11.2V347c0,6.2,15.5,11.2,34.6,11.2s34.6-5,34.6-11.2
		L250.8,352.7L250.8,352.7z"/>
	<path class="st4" d="M216.2,361.1c-19.1,0-34.6-5-34.6-11.2v2.2c0,6.2,15.5,11.2,34.6,11.2s34.6-5,34.6-11.2v-2.2
		C250.8,356.1,235.3,361.1,216.2,361.1z"/>
	<path class="st0" d="M250.8,352.7c0,6.2-15.5,11.2-34.6,11.2s-34.6-5-34.6-11.2V347c0,6.2,15.5,11.2,34.6,11.2s34.6-5,34.6-11.2
		L250.8,352.7L250.8,352.7z"/>
	<line class="st0" x1="187.4" y1="353.1" x2="187.4" y2="358.8"/>
	<line class="st0" x1="193.1" y1="355.3" x2="193.1" y2="361"/>
	<line class="st0" x1="198.9" y1="356.6" x2="198.9" y2="362.4"/>
	<line class="st0" x1="210.4" y1="358.1" x2="210.4" y2="363.7"/>
	<line class="st0" x1="204.7" y1="357.5" x2="204.7" y2="363.3"/>
	<line class="st0" x1="216.2" y1="358.1" x2="216.2" y2="363.8"/>
	<line class="st0" x1="221.9" y1="358" x2="221.9" y2="363.7"/>
	<line class="st0" x1="227.7" y1="357.5" x2="227.7" y2="363.2"/>
	<line class="st0" x1="233.5" y1="356.6" x2="233.5" y2="362.2"/>
	<line class="st0" x1="239.2" y1="355.3" x2="239.2" y2="361"/>
	<line class="st0" x1="245" y1="353.1" x2="245" y2="358.8"/>
	<ellipse class="st0" cx="216.2" cy="346.9" rx="34.6" ry="11.2"/>
	<polygon class="st9" points="212.2,343.7 205.4,346.8 219.9,346.4 225.8,343 	"/>
	<polygon class="st9" points="205.5,346.8 220,346.4 212.3,343.7 203.4,340.5 	"/>
	<polygon class="st9" points="203.4,340.5 212.3,343.7 220,346.4 225.9,342.9 	"/>
	<polyline class="st9" points="208.4,347.9 229,349.7 222.9,347.5 	"/>
	<polyline class="st9" points="222.9,347.5 229,349.7 228.8,344 	"/>
	<polygon class="st10" points="212.2,343.7 205.4,346.8 219.9,346.4 225.8,343 	"/>
	<polygon class="st10" points="205.5,346.8 220,346.4 212.3,343.7 203.4,340.5 	"/>
	<polygon class="st10" points="203.4,340.5 212.3,343.7 220,346.4 225.9,342.9 	"/>
	<polyline class="st10" points="208.4,347.9 229,349.7 222.9,347.5 	"/>
	<polyline class="st10" points="222.9,347.5 229,349.7 228.8,344 	"/>
	<ellipse class="st4" cx="222.4" cy="338.4" rx="34.6" ry="11.2"/>
	<path class="st5" d="M193.8,338.4c0-5.9,13.9-10.7,31.6-11.1c-1,0-2,0-3,0c-19.1,0-34.6,5-34.6,11.2s15.5,11.2,34.6,11.2
		c1,0,2,0,3,0C207.7,349,193.8,344.2,193.8,338.4z"/>
	<path class="st5" d="M257,344.1c0,6.2-15.5,11.2-34.6,11.2s-34.6-5-34.6-11.2v-5.7c0,6.2,15.5,11.2,34.6,11.2s34.6-5,34.6-11.2
		V344.1z"/>
	<path class="st4" d="M222.4,352.5c-19.1,0-34.6-5-34.6-11.2v2.2c0,6.2,15.5,11.2,34.6,11.2s34.6-5,34.6-11.2v-2.2
		C257,347.5,241.5,352.5,222.4,352.5z"/>
	<path class="st0" d="M257,344.1c0,6.2-15.5,11.2-34.6,11.2s-34.6-5-34.6-11.2v-5.7c0,6.2,15.5,11.2,34.6,11.2s34.6-5,34.6-11.2
		V344.1z"/>
	<line class="st0" x1="193.6" y1="344.5" x2="193.6" y2="350.3"/>
	<line class="st0" x1="199.4" y1="346.7" x2="199.4" y2="352.4"/>
	<line class="st0" x1="205.1" y1="348.1" x2="205.1" y2="353.8"/>
	<line class="st0" x1="216.7" y1="349.6" x2="216.7" y2="355.1"/>
	<line class="st0" x1="210.9" y1="348.9" x2="210.9" y2="354.7"/>
	<line class="st0" x1="222.4" y1="349.6" x2="222.4" y2="355.3"/>
	<line class="st0" x1="228.2" y1="349.4" x2="228.2" y2="355.1"/>
	<line class="st0" x1="234" y1="348.9" x2="234" y2="354.6"/>
	<line class="st0" x1="239.7" y1="348.1" x2="239.7" y2="353.7"/>
	<line class="st0" x1="245.5" y1="346.7" x2="245.5" y2="352.4"/>
	<line class="st0" x1="251.3" y1="344.5" x2="251.3" y2="350.3"/>
	<ellipse class="st0" cx="222.4" cy="338.4" rx="34.6" ry="11.2"/>
	<polygon class="st9" points="218.5,335.1 211.6,338.2 226.2,337.9 232,334.4 	"/>
	<polygon class="st9" points="211.7,338.2 226.3,337.9 218.6,335.1 209.7,331.9 	"/>
	<polygon class="st9" points="209.7,331.9 218.6,335.1 226.3,337.9 232.1,334.4 	"/>
	<polyline class="st9" points="214.6,339.3 235.2,341.1 229.2,338.9 	"/>
	<polyline class="st9" points="229.2,338.9 235.2,341.1 235,335.4 	"/>
	<polygon class="st10" points="218.5,335.1 211.6,338.2 226.2,337.9 232,334.4 	"/>
	<polygon class="st10" points="211.7,338.2 226.3,337.9 218.6,335.1 209.7,331.9 	"/>
	<polygon class="st10" points="209.7,331.9 218.6,335.1 226.3,337.9 232.1,334.4 	"/>
	<polyline class="st10" points="214.6,339.3 235.2,341.1 229.2,338.9 	"/>
	<polyline class="st10" points="229.2,338.9 235.2,341.1 235,335.4 	"/>
	<ellipse class="st4" cx="218.1" cy="330.6" rx="34.6" ry="11.2"/>
	<path class="st5" d="M189.5,330.6c0-5.9,13.9-10.7,31.6-11.1c-1,0-2,0-3,0c-19.1,0-34.6,5-34.6,11.2s15.5,11.2,34.6,11.2
		c1,0,2,0,3,0C203.4,341.3,189.5,336.5,189.5,330.6z"/>
	<path class="st5" d="M252.7,336.3c0,6.2-15.5,11.2-34.6,11.2s-34.6-5-34.6-11.2v-5.7c0,6.2,15.5,11.2,34.6,11.2s34.6-5,34.6-11.2
		L252.7,336.3L252.7,336.3z"/>
	<path class="st4" d="M218.1,344.7c-19.1,0-34.6-5-34.6-11.2v2.2c0,6.2,15.5,11.2,34.6,11.2s34.6-5,34.6-11.2v-2.2
		C252.7,339.7,237.2,344.7,218.1,344.7z"/>
	<path class="st0" d="M252.7,336.3c0,6.2-15.5,11.2-34.6,11.2s-34.6-5-34.6-11.2v-5.7c0,6.2,15.5,11.2,34.6,11.2s34.6-5,34.6-11.2
		L252.7,336.3L252.7,336.3z"/>
	<line class="st0" x1="189.3" y1="336.8" x2="189.3" y2="342.5"/>
	<line class="st0" x1="195.1" y1="338.9" x2="195.1" y2="344.7"/>
	<line class="st0" x1="200.8" y1="340.3" x2="200.8" y2="346"/>
	<line class="st0" x1="212.4" y1="341.8" x2="212.4" y2="347.4"/>
	<line class="st0" x1="206.6" y1="341.1" x2="206.6" y2="346.9"/>
	<line class="st0" x1="218.1" y1="341.8" x2="218.1" y2="347.5"/>
	<line class="st0" x1="223.9" y1="341.6" x2="223.9" y2="347.3"/>
	<line class="st0" x1="229.7" y1="341.1" x2="229.7" y2="346.9"/>
	<line class="st0" x1="235.4" y1="340.3" x2="235.4" y2="345.9"/>
	<line class="st0" x1="241.2" y1="338.9" x2="241.2" y2="344.6"/>
	<line class="st0" x1="247" y1="336.8" x2="247" y2="342.5"/>
	<ellipse class="st0" cx="218.1" cy="330.6" rx="34.6" ry="11.2"/>
	<polygon class="st9" points="214.2,327.3 207.3,330.5 221.9,330.1 227.7,326.6 	"/>
	<polygon class="st9" points="207.4,330.5 222,330.1 214.3,327.3 205.3,324.1 	"/>
	<polygon class="st9" points="205.3,324.1 214.3,327.3 222,330.1 227.8,326.6 	"/>
	<polyline class="st9" points="210.3,331.5 230.9,333.3 224.9,331.2 	"/>
	<polyline class="st9" points="224.9,331.2 230.9,333.3 230.7,327.7 	"/>
	<polygon class="st10" points="214.2,327.3 207.3,330.5 221.9,330.1 227.7,326.6 	"/>
	<polygon class="st10" points="207.4,330.5 222,330.1 214.3,327.3 205.3,324.1 	"/>
	<polygon class="st10" points="205.3,324.1 214.3,327.3 222,330.1 227.8,326.6 	"/>
	<polyline class="st10" points="210.3,331.5 230.9,333.3 224.9,331.2 	"/>
	<polyline class="st10" points="224.9,331.2 230.9,333.3 230.7,327.7 	"/>
	<ellipse class="st4" cx="228.2" cy="321.3" rx="34.6" ry="11.2"/>
	<path class="st5" d="M199.6,321.3c0-5.9,13.9-10.7,31.6-11.1c-1,0-2,0-3,0c-19.1,0-34.6,5-34.6,11.2s15.5,11.2,34.6,11.2
		c1,0,2,0,3,0C213.5,331.9,199.6,327.1,199.6,321.3z"/>
	<path class="st5" d="M262.8,327c0,6.2-15.5,11.2-34.6,11.2s-34.6-5-34.6-11.2v-5.7c0,6.2,15.5,11.2,34.6,11.2s34.6-5,34.6-11.2V327
		z"/>
	<path class="st4" d="M228.2,335.4c-19.1,0-34.6-5-34.6-11.2v2.2c0,6.2,15.5,11.2,34.6,11.2s34.6-5,34.6-11.2v-2.2
		C262.8,330.4,247.3,335.4,228.2,335.4z"/>
	<path class="st0" d="M262.8,327c0,6.2-15.5,11.2-34.6,11.2s-34.6-5-34.6-11.2v-5.7c0,6.2,15.5,11.2,34.6,11.2s34.6-5,34.6-11.2V327
		z"/>
	<line class="st0" x1="199.4" y1="327.5" x2="199.4" y2="333.2"/>
	<line class="st0" x1="205.1" y1="329.6" x2="205.1" y2="335.4"/>
	<line class="st0" x1="210.9" y1="331" x2="210.9" y2="336.7"/>
	<line class="st0" x1="222.4" y1="332.5" x2="222.4" y2="338"/>
	<line class="st0" x1="216.7" y1="331.8" x2="216.7" y2="337.6"/>
	<line class="st0" x1="228.2" y1="332.5" x2="228.2" y2="338.2"/>
	<line class="st0" x1="234" y1="332.3" x2="234" y2="338"/>
	<line class="st0" x1="239.7" y1="331.8" x2="239.7" y2="337.6"/>
	<line class="st0" x1="245.5" y1="331" x2="245.5" y2="336.6"/>
	<line class="st0" x1="251.3" y1="329.6" x2="251.3" y2="335.3"/>
	<line class="st0" x1="257" y1="327.5" x2="257" y2="333.2"/>
	<ellipse class="st0" cx="228.2" cy="321.3" rx="34.6" ry="11.2"/>
	<polygon class="st9" points="224.2,318 217.4,321.2 232,320.8 237.8,317.3 	"/>
	<polygon class="st9" points="217.5,321.2 232.1,320.8 224.3,318 215.4,314.8 	"/>
	<polygon class="st9" points="215.4,314.8 224.3,318 232.1,320.8 237.9,317.3 	"/>
	<polyline class="st9" points="220.4,322.2 241,324 234.9,321.9 	"/>
	<polyline class="st9" points="234.9,321.9 241,324 240.8,318.4 	"/>
	<polygon class="st10" points="224.2,318 217.4,321.2 232,320.8 237.8,317.3 	"/>
	<polygon class="st10" points="217.5,321.2 232.1,320.8 224.3,318 215.4,314.8 	"/>
	<polygon class="st10" points="215.4,314.8 224.3,318 232.1,320.8 237.9,317.3 	"/>
	<polyline class="st10" points="220.4,322.2 241,324 234.9,321.9 	"/>
	<polyline class="st10" points="234.9,321.9 241,324 240.8,318.4 	"/>
	<ellipse class="st4" cx="222.2" cy="311.8" rx="34.6" ry="11.2"/>
	<path class="st5" d="M193.6,311.8c0-5.9,13.9-10.7,31.6-11.1c-1,0-2,0-3,0c-19.1,0-34.6,5-34.6,11.2s15.5,11.2,34.6,11.2
		c1,0,2,0,3,0C207.5,322.5,193.6,317.7,193.6,311.8z"/>
	<path class="st5" d="M256.8,317.6c0,6.2-15.5,11.2-34.6,11.2s-34.6-5-34.6-11.2v-5.7c0,6.2,15.5,11.2,34.6,11.2s34.6-5,34.6-11.2
		V317.6z"/>
	<path class="st4" d="M222.2,326c-19.1,0-34.6-5-34.6-11.2v2.2c0,6.2,15.5,11.2,34.6,11.2s34.6-5,34.6-11.2v-2.2
		C256.8,321,241.3,326,222.2,326z"/>
	<path class="st0" d="M256.8,317.6c0,6.2-15.5,11.2-34.6,11.2s-34.6-5-34.6-11.2v-5.7c0,6.2,15.5,11.2,34.6,11.2s34.6-5,34.6-11.2
		V317.6z"/>
	<line class="st0" x1="193.4" y1="318" x2="193.4" y2="323.7"/>
	<line class="st0" x1="199.2" y1="320.2" x2="199.2" y2="325.9"/>
	<line class="st0" x1="204.9" y1="321.5" x2="204.9" y2="327.3"/>
	<line class="st0" x1="216.5" y1="323" x2="216.5" y2="328.6"/>
	<line class="st0" x1="210.7" y1="322.4" x2="210.7" y2="328.2"/>
	<line class="st0" x1="222.2" y1="323" x2="222.2" y2="328.8"/>
	<line class="st0" x1="228" y1="322.9" x2="228" y2="328.6"/>
	<line class="st0" x1="233.8" y1="322.4" x2="233.8" y2="328.1"/>
	<line class="st0" x1="239.5" y1="321.5" x2="239.5" y2="327.1"/>
	<line class="st0" x1="245.3" y1="320.2" x2="245.3" y2="325.9"/>
	<line class="st0" x1="251.1" y1="318" x2="251.1" y2="323.7"/>
	<ellipse class="st0" cx="222.2" cy="311.8" rx="34.6" ry="11.2"/>
	<polygon class="st9" points="218.3,308.6 211.4,311.7 226,311.3 231.8,307.9 	"/>
	<polygon class="st9" points="211.5,311.7 226.1,311.3 218.4,308.6 209.4,305.4 	"/>
	<polygon class="st9" points="209.4,305.4 218.4,308.6 226.1,311.3 231.9,307.8 	"/>
	<polyline class="st9" points="214.4,312.8 235,314.6 229,312.4 	"/>
	<polyline class="st9" points="229,312.4 235,314.6 234.8,308.9 	"/>
	<polygon class="st10" points="218.3,308.6 211.4,311.7 226,311.3 231.8,307.9 	"/>
	<polygon class="st10" points="211.5,311.7 226.1,311.3 218.4,308.6 209.4,305.4 	"/>
	<polygon class="st10" points="209.4,305.4 218.4,308.6 226.1,311.3 231.9,307.8 	"/>
	<polyline class="st10" points="214.4,312.8 235,314.6 229,312.4 	"/>
	<polyline class="st10" points="229,312.4 235,314.6 234.8,308.9 	"/>
	<ellipse class="st4" cx="218.1" cy="302.5" rx="34.6" ry="11.2"/>
	<path class="st5" d="M189.5,302.5c0-5.9,13.9-10.7,31.6-11.1c-1,0-2,0-3,0c-19.1,0-34.6,5-34.6,11.2s15.5,11.2,34.6,11.2
		c1,0,2,0,3,0C203.4,313.2,189.5,308.4,189.5,302.5z"/>
	<path class="st5" d="M252.7,308.3c0,6.2-15.5,11.2-34.6,11.2s-34.6-5-34.6-11.2v-5.7c0,6.2,15.5,11.2,34.6,11.2s34.6-5,34.6-11.2
		L252.7,308.3L252.7,308.3z"/>
	<path class="st4" d="M218.1,316.7c-19.1,0-34.6-5-34.6-11.2v2.2c0,6.2,15.5,11.2,34.6,11.2s34.6-5,34.6-11.2v-2.2
		C252.7,311.7,237.2,316.7,218.1,316.7z"/>
	<path class="st0" d="M252.7,308.3c0,6.2-15.5,11.2-34.6,11.2s-34.6-5-34.6-11.2v-5.7c0,6.2,15.5,11.2,34.6,11.2s34.6-5,34.6-11.2
		L252.7,308.3L252.7,308.3z"/>
	<line class="st0" x1="189.3" y1="308.7" x2="189.3" y2="314.4"/>
	<line class="st0" x1="195.1" y1="310.9" x2="195.1" y2="316.6"/>
	<line class="st0" x1="200.8" y1="312.2" x2="200.8" y2="317.9"/>
	<line class="st0" x1="212.4" y1="313.7" x2="212.4" y2="319.3"/>
	<line class="st0" x1="206.6" y1="313.1" x2="206.6" y2="318.8"/>
	<line class="st0" x1="218.1" y1="313.7" x2="218.1" y2="319.4"/>
	<line class="st0" x1="223.9" y1="313.6" x2="223.9" y2="319.3"/>
	<line class="st0" x1="229.7" y1="313.1" x2="229.7" y2="318.8"/>
	<line class="st0" x1="235.4" y1="312.2" x2="235.4" y2="317.8"/>
	<line class="st0" x1="241.2" y1="310.9" x2="241.2" y2="316.6"/>
	<line class="st0" x1="247" y1="308.7" x2="247" y2="314.4"/>
	<ellipse class="st0" cx="218.1" cy="302.5" rx="34.6" ry="11.2"/>
	<polygon class="st9" points="214.2,299.3 207.3,302.4 221.9,302 227.7,298.5 	"/>
	<polygon class="st9" points="207.4,302.4 222,302 214.3,299.3 205.3,296.1 	"/>
	<polygon class="st9" points="205.3,296.1 214.3,299.3 222,302 227.8,298.5 	"/>
	<polyline class="st9" points="210.3,303.5 230.9,305.3 224.9,303.1 	"/>
	<polyline class="st9" points="224.9,303.1 230.9,305.3 230.7,299.6 	"/>
	<polygon class="st10" points="214.2,299.3 207.3,302.4 221.9,302 227.7,298.5 	"/>
	<polygon class="st10" points="207.4,302.4 222,302 214.3,299.3 205.3,296.1 	"/>
	<polygon class="st10" points="205.3,296.1 214.3,299.3 222,302 227.8,298.5 	"/>
	<polyline class="st10" points="210.3,303.5 230.9,305.3 224.9,303.1 	"/>
	<polyline class="st10" points="224.9,303.1 230.9,305.3 230.7,299.6 	"/>
	<ellipse class="st4" cx="222.4" cy="292.4" rx="34.6" ry="11.2"/>
	<path class="st5" d="M193.8,292.4c0-5.9,13.9-10.7,31.6-11.1c-1,0-2,0-3,0c-19.1,0-34.6,5-34.6,11.2s15.5,11.2,34.6,11.2
		c1,0,2,0,3,0C207.7,303.1,193.8,298.3,193.8,292.4z"/>
	<path class="st5" d="M257,298.2c0,6.2-15.5,11.2-34.6,11.2s-34.6-5-34.6-11.2v-5.7c0,6.2,15.5,11.2,34.6,11.2s34.6-5,34.6-11.2
		V298.2z"/>
	<path class="st4" d="M222.4,306.6c-19.1,0-34.6-5-34.6-11.2v2.2c0,6.2,15.5,11.2,34.6,11.2s34.6-5,34.6-11.2v-2.2
		C257,301.6,241.5,306.6,222.4,306.6z"/>
	<path class="st0" d="M257,298.2c0,6.2-15.5,11.2-34.6,11.2s-34.6-5-34.6-11.2v-5.7c0,6.2,15.5,11.2,34.6,11.2s34.6-5,34.6-11.2
		V298.2z"/>
	<line class="st0" x1="193.6" y1="298.6" x2="193.6" y2="304.4"/>
	<line class="st0" x1="199.4" y1="300.8" x2="199.4" y2="306.5"/>
	<line class="st0" x1="205.1" y1="302.1" x2="205.1" y2="307.9"/>
	<line class="st0" x1="216.7" y1="303.7" x2="216.7" y2="309.2"/>
	<line class="st0" x1="210.9" y1="303" x2="210.9" y2="308.8"/>
	<line class="st0" x1="222.4" y1="303.6" x2="222.4" y2="309.4"/>
	<line class="st0" x1="228.2" y1="303.5" x2="228.2" y2="309.2"/>
	<line class="st0" x1="234" y1="303" x2="234" y2="308.7"/>
	<line class="st0" x1="239.7" y1="302.1" x2="239.7" y2="307.8"/>
	<line class="st0" x1="245.5" y1="300.8" x2="245.5" y2="306.5"/>
	<line class="st0" x1="251.3" y1="298.6" x2="251.3" y2="304.4"/>
	<ellipse class="st0" cx="222.4" cy="292.4" rx="34.6" ry="11.2"/>
	<polygon class="st9" points="218.5,289.2 211.6,292.3 226.2,292 232,288.5 	"/>
	<polygon class="st9" points="211.7,292.3 226.3,291.9 218.6,289.2 209.7,286 	"/>
	<polygon class="st9" points="209.7,286 218.6,289.2 226.3,291.9 232.1,288.5 	"/>
	<polyline class="st9" points="214.6,293.4 235.2,295.2 229.2,293 	"/>
	<polyline class="st9" points="229.2,293 235.2,295.2 235,289.5 	"/>
	<polygon class="st10" points="218.5,289.2 211.6,292.3 226.2,292 232,288.5 	"/>
	<polygon class="st10" points="211.7,292.3 226.3,291.9 218.6,289.2 209.7,286 	"/>
	<polygon class="st10" points="209.7,286 218.6,289.2 226.3,291.9 232.1,288.5 	"/>
	<polyline class="st10" points="214.6,293.4 235.2,295.2 229.2,293 	"/>
	<polyline class="st10" points="229.2,293 235.2,295.2 235,289.5 	"/>
	<ellipse class="st4" cx="209.9" cy="282.1" rx="34.6" ry="11.2"/>
	<path class="st5" d="M181.3,282.1c0-5.9,13.9-10.7,31.6-11.1c-1,0-2,0-3,0c-19.1,0-34.6,5-34.6,11.2s15.5,11.2,34.6,11.2
		c1,0,2,0,3,0C195.2,292.7,181.3,287.9,181.3,282.1z"/>
	<path class="st5" d="M244.5,287.8c0,6.2-15.5,11.2-34.6,11.2s-34.6-5-34.6-11.2v-5.7c0,6.2,15.5,11.2,34.6,11.2s34.6-5,34.6-11.2
		V287.8z"/>
	<path class="st4" d="M209.9,296.2c-19.1,0-34.6-5-34.6-11.2v2.2c0,6.2,15.5,11.2,34.6,11.2s34.6-5,34.6-11.2V285
		C244.5,291.2,229,296.2,209.9,296.2z"/>
	<path class="st0" d="M244.5,287.8c0,6.2-15.5,11.2-34.6,11.2s-34.6-5-34.6-11.2v-5.7c0,6.2,15.5,11.2,34.6,11.2s34.6-5,34.6-11.2
		V287.8z"/>
	<line class="st0" x1="181.1" y1="288.3" x2="181.1" y2="294"/>
	<line class="st0" x1="186.9" y1="290.4" x2="186.9" y2="296.1"/>
	<line class="st0" x1="192.6" y1="291.8" x2="192.6" y2="297.5"/>
	<line class="st0" x1="204.2" y1="293.3" x2="204.2" y2="298.8"/>
	<line class="st0" x1="198.4" y1="292.6" x2="198.4" y2="298.4"/>
	<line class="st0" x1="209.9" y1="293.3" x2="209.9" y2="299"/>
	<line class="st0" x1="215.7" y1="293.1" x2="215.7" y2="298.8"/>
	<line class="st0" x1="221.5" y1="292.6" x2="221.5" y2="298.3"/>
	<line class="st0" x1="227.2" y1="291.8" x2="227.2" y2="297.4"/>
	<line class="st0" x1="233" y1="290.4" x2="233" y2="296.1"/>
	<line class="st0" x1="238.7" y1="288.3" x2="238.7" y2="294"/>
	<ellipse class="st0" cx="209.9" cy="282.1" rx="34.6" ry="11.2"/>
	<polygon class="st9" points="205.9,278.8 199.1,282 213.7,281.6 219.5,278.1 	"/>
	<polygon class="st9" points="199.2,281.9 213.8,281.6 206,278.8 197.1,275.6 	"/>
	<polygon class="st9" points="197.1,275.6 206,278.8 213.8,281.6 219.6,278.1 	"/>
	<polyline class="st9" points="202.1,283 222.7,284.8 216.7,282.6 	"/>
	<polyline class="st9" points="216.7,282.6 222.7,284.8 222.5,279.1 	"/>
	<polygon class="st10" points="205.9,278.8 199.1,282 213.7,281.6 219.5,278.1 	"/>
	<polygon class="st10" points="199.2,281.9 213.8,281.6 206,278.8 197.1,275.6 	"/>
	<polygon class="st10" points="197.1,275.6 206,278.8 213.8,281.6 219.6,278.1 	"/>
	<polyline class="st10" points="202.1,283 222.7,284.8 216.7,282.6 	"/>
	<polyline class="st10" points="216.7,282.6 222.7,284.8 222.5,279.1 	"/>
	<ellipse class="st4" cx="305.8" cy="346.9" rx="34.6" ry="11.2"/>
	<path class="st5" d="M277.1,346.9c0-5.9,13.9-10.7,31.6-11.1c-1,0-2,0-3,0c-19.1,0-34.6,5-34.6,11.2s15.5,11.2,34.6,11.2
		c1,0,2,0,3,0C291,357.6,277.1,352.8,277.1,346.9z"/>
	<path class="st5" d="M340.3,352.7c0,6.2-15.5,11.2-34.6,11.2s-34.6-5-34.6-11.2V347c0,6.2,15.5,11.2,34.6,11.2s34.6-5,34.6-11.2
		V352.7z"/>
	<path class="st4" d="M305.8,361.1c-19.1,0-34.6-5-34.6-11.2v2.2c0,6.2,15.5,11.2,34.6,11.2s34.6-5,34.6-11.2v-2.2
		C340.3,356.1,324.9,361.1,305.8,361.1z"/>
	<path class="st0" d="M340.3,352.7c0,6.2-15.5,11.2-34.6,11.2s-34.6-5-34.6-11.2V347c0,6.2,15.5,11.2,34.6,11.2s34.6-5,34.6-11.2
		V352.7z"/>
	<line class="st0" x1="276.9" y1="353.1" x2="276.9" y2="358.8"/>
	<line class="st0" x1="282.7" y1="355.3" x2="282.7" y2="361"/>
	<line class="st0" x1="288.5" y1="356.6" x2="288.5" y2="362.4"/>
	<line class="st0" x1="300" y1="358.1" x2="300" y2="363.7"/>
	<line class="st0" x1="294.2" y1="357.5" x2="294.2" y2="363.3"/>
	<line class="st0" x1="305.8" y1="358.1" x2="305.8" y2="363.8"/>
	<line class="st0" x1="311.5" y1="358" x2="311.5" y2="363.7"/>
	<line class="st0" x1="317.3" y1="357.5" x2="317.3" y2="363.2"/>
	<line class="st0" x1="323" y1="356.6" x2="323" y2="362.2"/>
	<line class="st0" x1="328.8" y1="355.3" x2="328.8" y2="361"/>
	<line class="st0" x1="334.6" y1="353.1" x2="334.6" y2="358.8"/>
	<ellipse class="st0" cx="305.8" cy="346.9" rx="34.6" ry="11.2"/>
	<polygon class="st9" points="301.8,343.7 294.9,346.8 309.5,346.4 315.3,343 	"/>
	<polygon class="st9" points="295,346.8 309.6,346.4 301.9,343.7 293,340.5 	"/>
	<polygon class="st9" points="293,340.5 301.9,343.7 309.6,346.4 315.4,342.9 	"/>
	<polyline class="st9" points="297.9,347.9 318.5,349.7 312.5,347.5 	"/>
	<polyline class="st9" points="312.5,347.5 318.5,349.7 318.3,344 	"/>
	<polygon class="st10" points="301.8,343.7 294.9,346.8 309.5,346.4 315.3,343 	"/>
	<polygon class="st10" points="295,346.8 309.6,346.4 301.9,343.7 293,340.5 	"/>
	<polygon class="st10" points="293,340.5 301.9,343.7 309.6,346.4 315.4,342.9 	"/>
	<polyline class="st10" points="297.9,347.9 318.5,349.7 312.5,347.5 	"/>
	<polyline class="st10" points="312.5,347.5 318.5,349.7 318.3,344 	"/>
	<ellipse class="st4" cx="312" cy="338.4" rx="34.6" ry="11.2"/>
	<path class="st5" d="M283.4,338.4c0-5.9,13.9-10.7,31.6-11.1c-1,0-2,0-3,0c-19.1,0-34.6,5-34.6,11.2s15.5,11.2,34.6,11.2
		c1,0,2,0,3,0C297.3,349,283.4,344.2,283.4,338.4z"/>
	<path class="st5" d="M346.6,344.1c0,6.2-15.5,11.2-34.6,11.2s-34.6-5-34.6-11.2v-5.7c0,6.2,15.5,11.2,34.6,11.2s34.6-5,34.6-11.2
		V344.1z"/>
	<path class="st4" d="M312,352.5c-19.1,0-34.6-5-34.6-11.2v2.2c0,6.2,15.5,11.2,34.6,11.2s34.6-5,34.6-11.2v-2.2
		C346.6,347.5,331.1,352.5,312,352.5z"/>
	<path class="st0" d="M346.6,344.1c0,6.2-15.5,11.2-34.6,11.2s-34.6-5-34.6-11.2v-5.7c0,6.2,15.5,11.2,34.6,11.2s34.6-5,34.6-11.2
		V344.1z"/>
	<line class="st0" x1="283.2" y1="344.5" x2="283.2" y2="350.3"/>
	<line class="st0" x1="289" y1="346.7" x2="289" y2="352.4"/>
	<line class="st0" x1="294.7" y1="348.1" x2="294.7" y2="353.8"/>
	<line class="st0" x1="306.2" y1="349.6" x2="306.2" y2="355.1"/>
	<line class="st0" x1="300.5" y1="348.9" x2="300.5" y2="354.7"/>
	<line class="st0" x1="312" y1="349.6" x2="312" y2="355.3"/>
	<line class="st0" x1="317.8" y1="349.4" x2="317.8" y2="355.1"/>
	<line class="st0" x1="323.5" y1="348.9" x2="323.5" y2="354.6"/>
	<line class="st0" x1="329.3" y1="348.1" x2="329.3" y2="353.7"/>
	<line class="st0" x1="335.1" y1="346.7" x2="335.1" y2="352.4"/>
	<line class="st0" x1="340.8" y1="344.5" x2="340.8" y2="350.3"/>
	<ellipse class="st0" cx="312" cy="338.4" rx="34.6" ry="11.2"/>
	<polygon class="st9" points="308,335.1 301.2,338.2 315.8,337.9 321.6,334.4 	"/>
	<polygon class="st9" points="301.3,338.2 315.9,337.9 308.1,335.1 299.2,331.9 	"/>
	<polygon class="st9" points="299.2,331.9 308.1,335.1 315.9,337.9 321.7,334.4 	"/>
	<polyline class="st9" points="304.2,339.3 324.8,341.1 318.7,338.9 	"/>
	<polyline class="st9" points="318.7,338.9 324.8,341.1 324.6,335.4 	"/>
	<polygon class="st10" points="308,335.1 301.2,338.2 315.8,337.9 321.6,334.4 	"/>
	<polygon class="st10" points="301.3,338.2 315.9,337.9 308.1,335.1 299.2,331.9 	"/>
	<polygon class="st10" points="299.2,331.9 308.1,335.1 315.9,337.9 321.7,334.4 	"/>
	<polyline class="st10" points="304.2,339.3 324.8,341.1 318.7,338.9 	"/>
	<polyline class="st10" points="318.7,338.9 324.8,341.1 324.6,335.4 	"/>
	<ellipse class="st4" cx="302.4" cy="330.6" rx="34.6" ry="11.2"/>
	<path class="st5" d="M273.8,330.6c0-5.9,13.9-10.7,31.6-11.1c-1,0-2,0-3,0c-19.1,0-34.6,5-34.6,11.2s15.5,11.2,34.6,11.2
		c1,0,2,0,3,0C287.7,341.3,273.8,336.5,273.8,330.6z"/>
	<path class="st5" d="M337,336.3c0,6.2-15.5,11.2-34.6,11.2s-34.6-5-34.6-11.2v-5.7c0,6.2,15.5,11.2,34.6,11.2s34.6-5,34.6-11.2
		V336.3z"/>
	<path class="st4" d="M302.4,344.7c-19.1,0-34.6-5-34.6-11.2v2.2c0,6.2,15.5,11.2,34.6,11.2s34.6-5,34.6-11.2v-2.2
		C337,339.7,321.5,344.7,302.4,344.7z"/>
	<path class="st0" d="M337,336.3c0,6.2-15.5,11.2-34.6,11.2s-34.6-5-34.6-11.2v-5.7c0,6.2,15.5,11.2,34.6,11.2s34.6-5,34.6-11.2
		V336.3z"/>
	<line class="st0" x1="273.6" y1="336.8" x2="273.6" y2="342.5"/>
	<line class="st0" x1="279.4" y1="338.9" x2="279.4" y2="344.7"/>
	<line class="st0" x1="285.1" y1="340.3" x2="285.1" y2="346"/>
	<line class="st0" x1="296.7" y1="341.8" x2="296.7" y2="347.4"/>
	<line class="st0" x1="290.9" y1="341.1" x2="290.9" y2="346.9"/>
	<line class="st0" x1="302.4" y1="341.8" x2="302.4" y2="347.5"/>
	<line class="st0" x1="308.2" y1="341.6" x2="308.2" y2="347.3"/>
	<line class="st0" x1="313.9" y1="341.1" x2="313.9" y2="346.9"/>
	<line class="st0" x1="319.7" y1="340.3" x2="319.7" y2="345.9"/>
	<line class="st0" x1="325.5" y1="338.9" x2="325.5" y2="344.6"/>
	<line class="st0" x1="331.2" y1="336.8" x2="331.2" y2="342.5"/>
	<ellipse class="st0" cx="302.4" cy="330.6" rx="34.6" ry="11.2"/>
	<polygon class="st9" points="298.4,327.3 291.6,330.5 306.2,330.1 312,326.6 	"/>
	<polygon class="st9" points="291.7,330.5 306.3,330.1 298.5,327.3 289.6,324.1 	"/>
	<polygon class="st9" points="289.6,324.1 298.5,327.3 306.3,330.1 312.1,326.6 	"/>
	<polyline class="st9" points="294.6,331.5 315.2,333.3 309.2,331.2 	"/>
	<polyline class="st9" points="309.2,331.2 315.2,333.3 315,327.7 	"/>
	<polygon class="st10" points="298.4,327.3 291.6,330.5 306.2,330.1 312,326.6 	"/>
	<polygon class="st10" points="291.7,330.5 306.3,330.1 298.5,327.3 289.6,324.1 	"/>
	<polygon class="st10" points="289.6,324.1 298.5,327.3 306.3,330.1 312.1,326.6 	"/>
	<polyline class="st10" points="294.6,331.5 315.2,333.3 309.2,331.2 	"/>
	<polyline class="st10" points="309.2,331.2 315.2,333.3 315,327.7 	"/>
	<ellipse class="st4" cx="157.8" cy="346.9" rx="34.6" ry="11.2"/>
	<path class="st5" d="M129.1,346.9c0-5.9,13.9-10.7,31.6-11.1c-1,0-2,0-3,0c-19.1,0-34.6,5-34.6,11.2s15.5,11.2,34.6,11.2
		c1,0,2,0,3,0C143,357.6,129.1,352.8,129.1,346.9z"/>
	<path class="st5" d="M192.3,352.7c0,6.2-15.5,11.2-34.6,11.2s-34.6-5-34.6-11.2V347c0,6.2,15.5,11.2,34.6,11.2s34.6-5,34.6-11.2
		L192.3,352.7L192.3,352.7z"/>
	<path class="st4" d="M157.8,361.1c-19.1,0-34.6-5-34.6-11.2v2.2c0,6.2,15.5,11.2,34.6,11.2s34.6-5,34.6-11.2v-2.2
		C192.3,356.1,176.9,361.1,157.8,361.1z"/>
	<path class="st0" d="M192.3,352.7c0,6.2-15.5,11.2-34.6,11.2s-34.6-5-34.6-11.2V347c0,6.2,15.5,11.2,34.6,11.2s34.6-5,34.6-11.2
		L192.3,352.7L192.3,352.7z"/>
	<line class="st0" x1="128.9" y1="353.1" x2="128.9" y2="358.8"/>
	<line class="st0" x1="134.7" y1="355.3" x2="134.7" y2="361"/>
	<line class="st0" x1="140.5" y1="356.6" x2="140.5" y2="362.4"/>
	<line class="st0" x1="152" y1="358.1" x2="152" y2="363.7"/>
	<line class="st0" x1="146.2" y1="357.5" x2="146.2" y2="363.3"/>
	<line class="st0" x1="157.8" y1="358.1" x2="157.8" y2="363.8"/>
	<line class="st0" x1="163.5" y1="358" x2="163.5" y2="363.7"/>
	<line class="st0" x1="169.3" y1="357.5" x2="169.3" y2="363.2"/>
	<line class="st0" x1="175" y1="356.6" x2="175" y2="362.2"/>
	<line class="st0" x1="180.8" y1="355.3" x2="180.8" y2="361"/>
	<line class="st0" x1="186.6" y1="353.1" x2="186.6" y2="358.8"/>
	<ellipse class="st0" cx="157.8" cy="346.9" rx="34.6" ry="11.2"/>
	<polygon class="st9" points="153.8,343.7 146.9,346.8 161.5,346.4 167.3,343 	"/>
	<polygon class="st9" points="147,346.8 161.6,346.4 153.9,343.7 145,340.5 	"/>
	<polygon class="st9" points="145,340.5 153.9,343.7 161.6,346.4 167.4,342.9 	"/>
	<polyline class="st9" points="149.9,347.9 170.5,349.7 164.5,347.5 	"/>
	<polyline class="st9" points="164.5,347.5 170.5,349.7 170.3,344 	"/>
	<polygon class="st10" points="153.8,343.7 146.9,346.8 161.5,346.4 167.3,343 	"/>
	<polygon class="st10" points="147,346.8 161.6,346.4 153.9,343.7 145,340.5 	"/>
	<polygon class="st10" points="145,340.5 153.9,343.7 161.6,346.4 167.4,342.9 	"/>
	<polyline class="st10" points="149.9,347.9 170.5,349.7 164.5,347.5 	"/>
	<polyline class="st10" points="164.5,347.5 170.5,349.7 170.3,344 	"/>
	<ellipse class="st4" cx="164" cy="338.4" rx="34.6" ry="11.2"/>
	<path class="st5" d="M135.4,338.4c0-5.9,13.9-10.7,31.6-11.1c-1,0-2,0-3,0c-19.1,0-34.6,5-34.6,11.2s15.5,11.2,34.6,11.2
		c1,0,2,0,3,0C149.3,349,135.4,344.2,135.4,338.4z"/>
	<path class="st5" d="M198.6,344.1c0,6.2-15.5,11.2-34.6,11.2s-34.6-5-34.6-11.2v-5.7c0,6.2,15.5,11.2,34.6,11.2s34.6-5,34.6-11.2
		V344.1z"/>
	<path class="st4" d="M164,352.5c-19.1,0-34.6-5-34.6-11.2v2.2c0,6.2,15.5,11.2,34.6,11.2s34.6-5,34.6-11.2v-2.2
		C198.6,347.5,183.1,352.5,164,352.5z"/>
	<path class="st0" d="M198.6,344.1c0,6.2-15.5,11.2-34.6,11.2s-34.6-5-34.6-11.2v-5.7c0,6.2,15.5,11.2,34.6,11.2s34.6-5,34.6-11.2
		V344.1z"/>
	<line class="st0" x1="135.2" y1="344.5" x2="135.2" y2="350.3"/>
	<line class="st0" x1="141" y1="346.7" x2="141" y2="352.4"/>
	<line class="st0" x1="146.7" y1="348.1" x2="146.7" y2="353.8"/>
	<line class="st0" x1="158.2" y1="349.6" x2="158.2" y2="355.1"/>
	<line class="st0" x1="152.5" y1="348.9" x2="152.5" y2="354.7"/>
	<line class="st0" x1="164" y1="349.6" x2="164" y2="355.3"/>
	<line class="st0" x1="169.8" y1="349.4" x2="169.8" y2="355.1"/>
	<line class="st0" x1="175.5" y1="348.9" x2="175.5" y2="354.6"/>
	<line class="st0" x1="181.3" y1="348.1" x2="181.3" y2="353.7"/>
	<line class="st0" x1="187.1" y1="346.7" x2="187.1" y2="352.4"/>
	<line class="st0" x1="192.8" y1="344.5" x2="192.8" y2="350.3"/>
	<ellipse class="st0" cx="164" cy="338.4" rx="34.6" ry="11.2"/>
	<polygon class="st9" points="160,335.1 153.2,338.2 167.8,337.9 173.6,334.4 	"/>
	<polygon class="st9" points="153.3,338.2 167.9,337.9 160.1,335.1 151.2,331.9 	"/>
	<polygon class="st9" points="151.2,331.9 160.1,335.1 167.9,337.9 173.7,334.4 	"/>
	<polyline class="st9" points="156.2,339.3 176.8,341.1 170.7,338.9 	"/>
	<polyline class="st9" points="170.7,338.9 176.8,341.1 176.6,335.4 	"/>
	<polygon class="st10" points="160,335.1 153.2,338.2 167.8,337.9 173.6,334.4 	"/>
	<polygon class="st10" points="153.3,338.2 167.9,337.9 160.1,335.1 151.2,331.9 	"/>
	<polygon class="st10" points="151.2,331.9 160.1,335.1 167.9,337.9 173.7,334.4 	"/>
	<polyline class="st10" points="156.2,339.3 176.8,341.1 170.7,338.9 	"/>
	<polyline class="st10" points="170.7,338.9 176.8,341.1 176.6,335.4 	"/>
	<ellipse class="st4" cx="159.7" cy="330.6" rx="34.6" ry="11.2"/>
	<path class="st5" d="M131.1,330.6c0-5.9,13.9-10.7,31.6-11.1c-1,0-2,0-3,0c-19.1,0-34.6,5-34.6,11.2s15.5,11.2,34.6,11.2
		c1,0,2,0,3,0C145,341.3,131.1,336.5,131.1,330.6z"/>
	<path class="st5" d="M194.3,336.3c0,6.2-15.5,11.2-34.6,11.2s-34.6-5-34.6-11.2v-5.7c0,6.2,15.5,11.2,34.6,11.2s34.6-5,34.6-11.2
		L194.3,336.3L194.3,336.3z"/>
	<path class="st4" d="M159.7,344.7c-19.1,0-34.6-5-34.6-11.2v2.2c0,6.2,15.5,11.2,34.6,11.2s34.6-5,34.6-11.2v-2.2
		C194.3,339.7,178.8,344.7,159.7,344.7z"/>
	<path class="st0" d="M194.3,336.3c0,6.2-15.5,11.2-34.6,11.2s-34.6-5-34.6-11.2v-5.7c0,6.2,15.5,11.2,34.6,11.2s34.6-5,34.6-11.2
		L194.3,336.3L194.3,336.3z"/>
	<line class="st0" x1="130.9" y1="336.8" x2="130.9" y2="342.5"/>
	<line class="st0" x1="136.6" y1="338.9" x2="136.6" y2="344.7"/>
	<line class="st0" x1="142.4" y1="340.3" x2="142.4" y2="346"/>
	<line class="st0" x1="153.9" y1="341.8" x2="153.9" y2="347.4"/>
	<line class="st0" x1="148.2" y1="341.1" x2="148.2" y2="346.9"/>
	<line class="st0" x1="159.7" y1="341.8" x2="159.7" y2="347.5"/>
	<line class="st0" x1="165.5" y1="341.6" x2="165.5" y2="347.3"/>
	<line class="st0" x1="171.2" y1="341.1" x2="171.2" y2="346.9"/>
	<line class="st0" x1="177" y1="340.3" x2="177" y2="345.9"/>
	<line class="st0" x1="182.8" y1="338.9" x2="182.8" y2="344.6"/>
	<line class="st0" x1="188.5" y1="336.8" x2="188.5" y2="342.5"/>
	<ellipse class="st0" cx="159.7" cy="330.6" rx="34.6" ry="11.2"/>
	<polygon class="st9" points="155.7,327.3 148.9,330.5 163.5,330.1 169.3,326.6 	"/>
	<polygon class="st9" points="149,330.5 163.6,330.1 155.8,327.3 146.9,324.1 	"/>
	<polygon class="st9" points="146.9,324.1 155.8,327.3 163.6,330.1 169.4,326.6 	"/>
	<polyline class="st9" points="151.9,331.5 172.5,333.3 166.4,331.2 	"/>
	<polyline class="st9" points="166.4,331.2 172.5,333.3 172.3,327.7 	"/>
	<polygon class="st10" points="155.7,327.3 148.9,330.5 163.5,330.1 169.3,326.6 	"/>
	<polygon class="st10" points="149,330.5 163.6,330.1 155.8,327.3 146.9,324.1 	"/>
	<polygon class="st10" points="146.9,324.1 155.8,327.3 163.6,330.1 169.4,326.6 	"/>
	<polyline class="st10" points="151.9,331.5 172.5,333.3 166.4,331.2 	"/>
	<polyline class="st10" points="166.4,331.2 172.5,333.3 172.3,327.7 	"/>
	<ellipse class="st4" cx="169.8" cy="321.3" rx="34.6" ry="11.2"/>
	<path class="st5" d="M141.1,321.3c0-5.9,13.9-10.7,31.6-11.1c-1,0-2,0-3,0c-19.1,0-34.6,5-34.6,11.2s15.5,11.2,34.6,11.2
		c1,0,2,0,3,0C155,331.9,141.1,327.1,141.1,321.3z"/>
	<path class="st5" d="M204.4,327c0,6.2-15.5,11.2-34.6,11.2s-34.6-5-34.6-11.2v-5.7c0,6.2,15.5,11.2,34.6,11.2s34.6-5,34.6-11.2V327
		z"/>
	<path class="st4" d="M169.8,335.4c-19.1,0-34.6-5-34.6-11.2v2.2c0,6.2,15.5,11.2,34.6,11.2s34.6-5,34.6-11.2v-2.2
		C204.4,330.4,188.9,335.4,169.8,335.4z"/>
	<path class="st0" d="M204.4,327c0,6.2-15.5,11.2-34.6,11.2s-34.6-5-34.6-11.2v-5.7c0,6.2,15.5,11.2,34.6,11.2s34.6-5,34.6-11.2V327
		z"/>
	<line class="st0" x1="141" y1="327.5" x2="141" y2="333.2"/>
	<line class="st0" x1="146.7" y1="329.6" x2="146.7" y2="335.4"/>
	<line class="st0" x1="152.5" y1="331" x2="152.5" y2="336.7"/>
	<line class="st0" x1="164" y1="332.5" x2="164" y2="338"/>
	<line class="st0" x1="158.2" y1="331.8" x2="158.2" y2="337.6"/>
	<line class="st0" x1="169.8" y1="332.5" x2="169.8" y2="338.2"/>
	<line class="st0" x1="175.5" y1="332.3" x2="175.5" y2="338"/>
	<line class="st0" x1="181.3" y1="331.8" x2="181.3" y2="337.6"/>
	<line class="st0" x1="187.1" y1="331" x2="187.1" y2="336.6"/>
	<line class="st0" x1="192.8" y1="329.6" x2="192.8" y2="335.3"/>
	<line class="st0" x1="198.6" y1="327.5" x2="198.6" y2="333.2"/>
	<ellipse class="st0" cx="169.8" cy="321.3" rx="34.6" ry="11.2"/>
	<polygon class="st9" points="165.8,318 159,321.2 173.5,320.8 179.4,317.3 	"/>
	<polygon class="st9" points="159.1,321.2 173.6,320.8 165.9,318 157,314.8 	"/>
	<polygon class="st9" points="157,314.8 165.9,318 173.6,320.8 179.5,317.3 	"/>
	<polyline class="st9" points="161.9,322.2 182.6,324 176.5,321.9 	"/>
	<polyline class="st9" points="176.5,321.9 182.6,324 182.3,318.4 	"/>
	<polygon class="st10" points="165.8,318 159,321.2 173.5,320.8 179.4,317.3 	"/>
	<polygon class="st10" points="159.1,321.2 173.6,320.8 165.9,318 157,314.8 	"/>
	<polygon class="st10" points="157,314.8 165.9,318 173.6,320.8 179.5,317.3 	"/>
	<polyline class="st10" points="161.9,322.2 182.6,324 176.5,321.9 	"/>
	<polyline class="st10" points="176.5,321.9 182.6,324 182.3,318.4 	"/>
	<ellipse class="st4" cx="163.8" cy="311.8" rx="34.6" ry="11.2"/>
	<path class="st5" d="M135.2,311.8c0-5.9,13.9-10.7,31.6-11.1c-1,0-2,0-3,0c-19.1,0-34.6,5-34.6,11.2s15.5,11.2,34.6,11.2
		c1,0,2,0,3,0C149.1,322.5,135.2,317.7,135.2,311.8z"/>
	<path class="st5" d="M198.4,317.6c0,6.2-15.5,11.2-34.6,11.2s-34.6-5-34.6-11.2v-5.7c0,6.2,15.5,11.2,34.6,11.2s34.6-5,34.6-11.2
		V317.6z"/>
	<path class="st4" d="M163.8,326c-19.1,0-34.6-5-34.6-11.2v2.2c0,6.2,15.5,11.2,34.6,11.2s34.6-5,34.6-11.2v-2.2
		C198.4,321,182.9,326,163.8,326z"/>
	<path class="st0" d="M198.4,317.6c0,6.2-15.5,11.2-34.6,11.2s-34.6-5-34.6-11.2v-5.7c0,6.2,15.5,11.2,34.6,11.2s34.6-5,34.6-11.2
		V317.6z"/>
	<line class="st0" x1="135" y1="318" x2="135" y2="323.7"/>
	<line class="st0" x1="140.7" y1="320.2" x2="140.7" y2="325.9"/>
	<line class="st0" x1="146.5" y1="321.5" x2="146.5" y2="327.3"/>
	<line class="st0" x1="158" y1="323" x2="158" y2="328.6"/>
	<line class="st0" x1="152.3" y1="322.4" x2="152.3" y2="328.2"/>
	<line class="st0" x1="163.8" y1="323" x2="163.8" y2="328.8"/>
	<line class="st0" x1="169.6" y1="322.9" x2="169.6" y2="328.6"/>
	<line class="st0" x1="175.3" y1="322.4" x2="175.3" y2="328.1"/>
	<line class="st0" x1="181.1" y1="321.5" x2="181.1" y2="327.1"/>
	<line class="st0" x1="186.9" y1="320.2" x2="186.9" y2="325.9"/>
	<line class="st0" x1="192.6" y1="318" x2="192.6" y2="323.7"/>
	<ellipse class="st0" cx="163.8" cy="311.8" rx="34.6" ry="11.2"/>
	<polygon class="st9" points="159.8,308.6 153,311.7 167.6,311.3 173.4,307.9 	"/>
	<polygon class="st9" points="153.1,311.7 167.7,311.3 159.9,308.6 151,305.4 	"/>
	<polygon class="st9" points="151,305.4 159.9,308.6 167.7,311.3 173.5,307.8 	"/>
	<polyline class="st9" points="156,312.8 176.6,314.6 170.5,312.4 	"/>
	<polyline class="st9" points="170.5,312.4 176.6,314.6 176.4,308.9 	"/>
	<polygon class="st10" points="159.8,308.6 153,311.7 167.6,311.3 173.4,307.9 	"/>
	<polygon class="st10" points="153.1,311.7 167.7,311.3 159.9,308.6 151,305.4 	"/>
	<polygon class="st10" points="151,305.4 159.9,308.6 167.7,311.3 173.5,307.8 	"/>
	<polyline class="st10" points="156,312.8 176.6,314.6 170.5,312.4 	"/>
	<polyline class="st10" points="170.5,312.4 176.6,314.6 176.4,308.9 	"/>
	<path class="st5" d="M160.7,334.4l-10.3,28.8c0,0,12.2,0.7,15.7,0.6S160.7,334.4,160.7,334.4z"/>
	<path class="st5" d="M160.7,334.4l-10.3,28.8c0,0,12.2,0.7,15.7,0.6S160.7,334.4,160.7,334.4z"/>
	<circle class="st4" cx="193.2" cy="344.4" r="29.1"/>
	<path class="st5" d="M194.2,315.4h-5.5c-16.1,0-29.1,13-29.1,29.1s13,29.1,29.1,29.1h5.5"/>
	<path class="st4" d="M197,315.4h-5.5c-16.1,0-29.1,13-29.1,29.1s13,29.1,29.1,29.1h5.5"/>
	<line class="st0" x1="177.3" y1="320.1" x2="172.8" y2="320.1"/>
	<line class="st0" x1="171" y1="325.4" x2="167.2" y2="325.4"/>
	<line class="st0" x1="167.4" y1="330.6" x2="163.5" y2="330.6"/>
	<line class="st0" x1="165.4" y1="335.9" x2="161.3" y2="335.9"/>
	<line class="st0" x1="164.3" y1="341.2" x2="160.4" y2="341.2"/>
	<line class="st0" x1="164.2" y1="346.5" x2="160.4" y2="346.5"/>
	<line class="st0" x1="165" y1="351.7" x2="160.7" y2="351.7"/>
	<line class="st0" x1="166.9" y1="357" x2="162.5" y2="357"/>
	<line class="st0" x1="170.2" y1="362.3" x2="166" y2="362.3"/>
	<line class="st0" x1="175.5" y1="367.6" x2="171" y2="367.6"/>
	<path class="st5" d="M216.4,344.6c0-14.9-11.3-27.4-26.1-28.9c1-0.1,1.9-0.1,2.9-0.1c16,0,29,13,29,29s-13,29-29,29c0,0,0,0-0.1,0
		c-1,0-2,0-2.9-0.1C205.1,372,216.4,359.5,216.4,344.6z"/>
	<circle class="st0" cx="193.2" cy="344.4" r="29.1"/>
	<path class="st0" d="M194.2,315.4h-5.5c-16.1,0-29.1,13-29.1,29.1s13,29.1,29.1,29.1h5.5"/>
	<polygon class="st7" points="194.2,339.7 203.1,343.7 194.2,349 185.3,343.7 	"/>
	<polygon class="st7" points="203,343.7 194.1,349 194.1,339.7 194.1,329 	"/>
	<polygon class="st7" points="194.1,329 194.1,339.7 194.1,349 185.3,343.7 	"/>
	<polyline class="st7" points="203.1,347.3 194.2,359.8 194.2,352.5 	"/>
	<polyline class="st7" points="194.2,352.5 194.2,359.8 185.3,347.3 	"/>
	<polygon class="st8" points="194.2,339.7 203.1,343.7 194.2,349 185.3,343.7 	"/>
	<polygon class="st8" points="203,343.7 194.1,349 194.1,339.7 194.1,329 	"/>
	<polygon class="st8" points="194.1,329 194.1,339.7 194.1,349 185.3,343.7 	"/>
	<polyline class="st8" points="203.1,347.3 194.2,359.8 194.2,352.5 	"/>
	<polyline class="st8" points="194.2,352.5 194.2,359.8 185.3,347.3 	"/>
	<circle class="st4" cx="302" cy="361.2" r="29.1"/>
	<path class="st5" d="M301,332.1h5.5c16.1,0,29.1,13,29.1,29.1s-13,29.1-29.1,29.1H301"/>
	<path class="st4" d="M298.2,332.1h5.5c16.1,0,29.1,13,29.1,29.1s-13,29.1-29.1,29.1l0,0h-5.5"/>
	<line class="st0" x1="317.9" y1="336.8" x2="322.4" y2="336.8"/>
	<line class="st0" x1="324.1" y1="342.1" x2="328" y2="342.1"/>
	<line class="st0" x1="327.8" y1="347.4" x2="331.7" y2="347.4"/>
	<line class="st0" x1="329.8" y1="352.6" x2="333.9" y2="352.6"/>
	<line class="st0" x1="330.9" y1="357.9" x2="334.8" y2="357.9"/>
	<line class="st0" x1="331" y1="363.2" x2="334.8" y2="363.2"/>
	<line class="st0" x1="330.2" y1="368.5" x2="334.5" y2="368.5"/>
	<line class="st0" x1="328.2" y1="373.7" x2="332.6" y2="373.7"/>
	<line class="st0" x1="325" y1="379" x2="329.2" y2="379"/>
	<line class="st0" x1="319.7" y1="384.3" x2="324.2" y2="384.3"/>
	<path class="st5" d="M278.8,361.3c0-14.9,11.3-27.4,26.1-28.9c-1-0.1-1.9-0.1-2.9-0.1c-16,0-29,13-29,29s13,29,29,29
		c1,0,2,0,2.9-0.1C290.1,388.7,278.8,376.2,278.8,361.3z"/>
	<circle class="st0" cx="302" cy="361.2" r="29.1"/>
	<path class="st0" d="M301,332.1h5.5c16.1,0,29.1,13,29.1,29.1s-13,29.1-29.1,29.1H301"/>
	<polygon class="st7" points="301,356.4 292.1,360.5 301,365.7 309.8,360.5 	"/>
	<polygon class="st7" points="292.2,360.5 301.1,365.7 301.1,356.4 301.1,345.7 	"/>
	<polygon class="st7" points="301.1,345.7 301.1,356.4 301.1,365.7 309.9,360.5 	"/>
	<polyline class="st7" points="292.1,364 301,376.5 301,369.3 	"/>
	<polyline class="st7" points="301,369.3 301,376.5 309.8,364 	"/>
	<polygon class="st8" points="301,356.4 292.1,360.5 301,365.7 309.8,360.5 	"/>
	<polygon class="st8" points="292.2,360.5 301.1,365.7 301.1,356.4 301.1,345.7 	"/>
	<polygon class="st8" points="301.1,345.7 301.1,356.4 301.1,365.7 309.9,360.5 	"/>
	<polyline class="st8" points="292.1,364 301,376.5 301,369.3 	"/>
	<polyline class="st8" points="301,369.3 301,376.5 309.8,364 	"/>
	<line class="st0" x1="561" y1="344.9" x2="552.1" y2="344.9"/>
	<line class="st3" x1="556.6" y1="252.1" x2="556.6" y2="344.8"/>
	<line class="st3" x1="556.4" y1="266.8" x2="545.6" y2="252.1"/>
	<line class="st3" x1="556.4" y1="266.8" x2="567.2" y2="252.1"/>
	<g>
		<g>
			<path class="st6" d="M381.9,128.7c-2-0.2-4.1-0.3-6.2-0.3c-37.6,0-68.1,30.5-68.1,68.1H320C320,161,347.2,131.8,381.9,128.7z"/>
		</g>
		<g>
			<path class="st6" d="M370.2,146.3c1.5-0.1,3-0.2,4.6-0.2c27.8,0,50.4,22.6,50.4,50.4H416C416,170.2,395.9,148.7,370.2,146.3z"/>
		</g>
		<g>
			<path class="st1" d="M334.4,160.8l-1.6-1.5l-4.2-0.6c-0.5-0.1-0.6-0.4-0.3-0.8l0.8-0.8c0.2-0.2,0.5-0.3,0.8-0.3l2.3,0.5l-0.6-2.3
				c-0.1-0.3,0-0.6,0.2-0.8l0.8-0.8c0.3-0.4,0.7-0.3,0.8,0.2l0.9,4.1l1.7,1.5c0.3,0.3,0.3,0.6,0,0.8l-0.6,0.7
				C334.9,161,334.6,161,334.4,160.8z"/>
			<path class="st1" d="M337.1,151.7l0.6,0.7l1.5-1.2c0.3-0.2,0.6-0.2,0.8,0.1l0.3,0.3c0.2,0.3,0.2,0.6-0.1,0.8l-1.5,1.2l0.6,0.7
				l1.8-1.5c0.3-0.2,0.6-0.2,0.8,0.1l0.4,0.5c0.2,0.3,0.2,0.6-0.1,0.8l-2.9,2.4c-0.3,0.2-0.6,0.2-0.8-0.1l-3.7-4.5
				c-0.2-0.3-0.2-0.6,0.1-0.8l2.9-2.4c0.3-0.2,0.6-0.2,0.8,0.1l0.4,0.5c0.2,0.3,0.2,0.6-0.1,0.8L337.1,151.7z"/>
			<path class="st1" d="M342.8,151.9c-0.3-0.2-0.3-0.6,0-0.9l0.4-0.4c0.2-0.3,0.5-0.2,0.8-0.1c0.3,0.1,0.7,0.1,1.1-0.2
				s0.6-0.6,0.4-0.9c-0.1-0.1-0.3-0.3-0.8-0.1l-0.8,0.2c-0.3,0.1-2,0.6-2.8-0.6c-0.7-1.1-0.3-2.5,1-3.3c0.9-0.6,1.8-0.6,2.6-0.2
				c0.4,0.2,0.4,0.5,0.1,0.8l-0.4,0.4c-0.2,0.3-0.5,0.3-0.8,0.2c-0.2,0-0.4,0-0.6,0.1c-0.3,0.2-0.5,0.5-0.3,0.7
				c0.1,0.2,0.3,0.2,0.8,0.1l0.8-0.2c1.6-0.4,2.4-0.1,2.9,0.7c0.8,1.2,0.1,2.5-1.2,3.4C344.8,152.5,343.7,152.5,342.8,151.9z"/>
		</g>
		<g>
			<path class="st1" d="M406.5,150.9l3.4-4.7c0.2-0.3,0.5-0.4,0.8-0.1l0.5,0.3c0.3,0.2,0.4,0.4,0.4,0.7v3.6l1.6-2.2
				c0.2-0.3,0.5-0.4,0.8-0.1l0.7,0.5c0.3,0.2,0.4,0.5,0.1,0.8l-3.4,4.7c-0.2,0.3-0.5,0.4-0.8,0.1l-0.5-0.3c-0.3-0.2-0.4-0.4-0.4-0.7
				l0.1-3.6l-1.6,2.2c-0.2,0.3-0.5,0.4-0.8,0.1l-0.7-0.5C406.3,151.5,406.3,151.2,406.5,150.9z"/>
			<path class="st1" d="M414.4,153.2c1.4-1.4,3.5-1.6,5.2,0.1c1.7,1.6,1.5,3.8,0.2,5.2c-1.4,1.4-3.5,1.6-5.2-0.1
				C412.9,156.7,413,154.6,414.4,153.2z M418.3,157c0.7-0.7,0.8-1.7,0.1-2.5s-1.8-0.6-2.5,0.1c-0.7,0.7-0.8,1.7-0.1,2.5
				S417.6,157.7,418.3,157z"/>
		</g>
		<path class="st11" d="M308.4,196.5c0-37.4,30.3-67.8,67.8-67.8S444,159,444,196.5H308.4z"/>
		<path class="st11" d="M327.1,196.5c0-27.1,22-49.1,49.1-49.1s49.1,22,49.1,49.1"/>
	</g>
</g>
</svg>
