<svg xmlns="http://www.w3.org/2000/svg" viewBox="0 0 51.17963 52.78679"><title>registry-clawarm</title><polygon points="38.119 14.578 28.697 48.144 36.77 51.626 50.018 20.6 38.119 14.578" style="fill:#fff"/><polygon points="38.119 14.578 33.583 30.736 44.709 33.033 50.018 20.6 38.119 14.578" style="fill:#7df8fb"/><polygon points="37.452 16.954 28.697 48.144 36.77 51.626 50.018 20.6 37.452 16.954" style="fill:none;stroke:#2d398f;stroke-linecap:round;stroke-linejoin:round;stroke-width:2.32252464294434px"/><polygon points="1.161 14.447 46.662 28.384 50.018 20.6 6.89 1.161 1.161 14.447" style="fill:#fff"/><polygon points="5.014 5.513 48.327 24.522 50.018 20.6 6.89 1.161 5.014 5.513" style="fill:#7df8fb"/><polygon points="1.161 14.447 46.662 28.384 50.018 20.6 6.89 1.161 1.161 14.447" style="fill:none;stroke:#2d398f;stroke-linecap:round;stroke-linejoin:round;stroke-width:2.32252464294434px"/></svg>