<?xml version="1.0" encoding="utf-8"?>
<!-- Generator: Adobe Illustrator 21.0.2, SVG Export Plug-In . SVG Version: 6.00 Build 0)  -->
<svg version="1.1" id="Layer_1" xmlns="http://www.w3.org/2000/svg" xmlns:xlink="http://www.w3.org/1999/xlink" x="0px" y="0px"
	 viewBox="0 0 147.4 144.2" style="enable-background:new 0 0 147.4 144.2;" xml:space="preserve">
<style type="text/css">
	.st0{fill:#FFFFFF;}
	.st1{fill:#82F6F9;}
	.st2{fill:none;stroke:#2D398F;stroke-width:2.3225;stroke-linecap:round;stroke-linejoin:round;}
	.st3{fill:#7DF8FB;}
	.st4{fill:#2C398F;}
	.st5{clip-path:url(#SVGID_2_);}
	.st6{fill:#04FFCC;}
	.st7{fill:none;}
	.st8{fill:#2D398F;}
</style>
<title>registry-cornerpapers</title>
<rect x="17.7" y="18.7" transform="matrix(0.9974 -7.268152e-02 7.268152e-02 0.9974 -5.3588 5.5945)" class="st0" width="112.9" height="115.4"/>
<rect x="17.7" y="18.7" transform="matrix(0.9974 -7.268152e-02 7.268152e-02 0.9974 -5.3588 5.5945)" class="st0" width="112.9" height="115.4"/>
<rect x="17.8" y="22.1" transform="matrix(0.9974 -7.268152e-02 7.268152e-02 0.9974 -5.7305 2.2023)" class="st1" width="19.1" height="115.4"/>
<rect x="13" y="19.5" transform="matrix(0.9974 -7.266762e-02 7.266762e-02 0.9974 -1.9266 5.2176)" class="st1" width="115.4" height="19.1"/>
<rect x="17.7" y="18.7" transform="matrix(0.9974 -7.268152e-02 7.268152e-02 0.9974 -5.3588 5.5945)" class="st2" width="112.9" height="115.4"/>
<path class="st3" d="M78.3,53.7"/>
<rect x="3" y="5.5" transform="matrix(5.534925e-02 -0.9985 0.9985 5.534925e-02 -4.4176 119.1725)" class="st0" width="115.4" height="112.9"/>
<rect x="-43.8" y="49.8" transform="matrix(5.534925e-02 -0.9985 0.9985 5.534925e-02 -46.0802 69.9423)" class="st1" width="115.4" height="19.1"/>
<rect x="53.9" y="-43.2" transform="matrix(5.536130e-02 -0.9985 0.9985 5.536130e-02 45.3871 77.023)" class="st1" width="19.1" height="115.4"/>
<rect x="3" y="5.5" transform="matrix(5.534925e-02 -0.9985 0.9985 5.534925e-02 -4.4176 119.1725)" class="st2" width="115.4" height="112.9"/>
<ellipse transform="matrix(0.1086 -0.9941 0.9941 0.1086 -10.6882 114.0113)" class="st0" cx="58.2" cy="63" rx="34.6" ry="34.6"/>
<path class="st1" d="M60.8,28.4l6.6,0.7c19,2.1,32.7,19.2,30.7,38.2C95.9,86.3,78.8,100,59.8,98l-6.6-0.7"/>
<path class="st0" d="M57.4,28l6.6,0.7C83,30.8,96.8,47.9,94.7,67c-2.1,19-19.2,32.7-38.2,30.7l-6.6-0.7"/>
<line class="st2" x1="80.2" y1="36.1" x2="85.5" y2="36.7"/>
<line class="st2" x1="86.9" y1="43.2" x2="91.4" y2="43.7"/>
<line class="st2" x1="90.5" y1="49.9" x2="95.1" y2="50.4"/>
<line class="st2" x1="92.3" y1="56.4" x2="97.1" y2="57"/>
<line class="st2" x1="92.9" y1="62.8" x2="97.5" y2="63.3"/>
<line class="st2" x1="92.3" y1="69.1" x2="96.8" y2="69.6"/>
<line class="st2" x1="90.6" y1="75.2" x2="95.7" y2="75.8"/>
<line class="st2" x1="87.7" y1="81.2" x2="92.9" y2="81.8"/>
<line class="st2" x1="83.1" y1="87.1" x2="88.1" y2="87.6"/>
<line class="st2" x1="76.1" y1="92.6" x2="81.5" y2="93.2"/>
<path class="st1" d="M30.7,60.1c1.9-17.6,16.9-31,34.7-30.8c-1.1-0.2-2.3-0.4-3.4-0.5c-19-2.1-36,11.6-38.1,30.6s11.6,36,30.6,38.1
	c1.2,0.1,2.3,0.2,3.5,0.2C40.5,94,28.8,77.8,30.7,60.1z"/>
<path class="st2" d="M78,45.5c4.9,5.6,7.2,12.9,6.4,20.3"/>
<ellipse transform="matrix(0.1086 -0.9941 0.9941 0.1086 -10.6882 114.0113)" class="st2" cx="58.2" cy="63" rx="34.6" ry="34.6"/>
<path class="st2" d="M60.8,28.4l6.6,0.7c19,2.1,32.7,19.2,30.7,38.2C95.9,86.3,78.8,100,59.8,98l-6.6-0.7"/>
<path class="st4" d="M47.3,40.3l-1-2.4c-0.1-0.1,0-0.2,0.1-0.3c0,0,0,0,0.1,0l1-0.4c0.8-0.3,1.7,0,2.1,0.8c0.3,0.8,0,1.7-0.8,2.1
	c0,0,0,0,0,0l-1,0.4C47.5,40.5,47.4,40.5,47.3,40.3C47.3,40.4,47.3,40.4,47.3,40.3z M48.3,39.4c0.4-0.2,0.7-0.7,0.5-1.1
	c-0.2-0.4-0.7-0.7-1.1-0.5c0,0,0,0,0,0L47.2,38l0.7,1.6L48.3,39.4z"/>
<path class="st4" d="M50.8,39L50,36.5c0-0.1,0-0.2,0.1-0.3c0,0,0,0,0,0l0.3-0.1c0.1,0,0.2,0,0.3,0.1c0,0,0,0,0,0l0.7,2.5
	c0,0.1,0,0.2-0.1,0.3c0,0,0,0,0,0l-0.3,0.1C50.9,39.2,50.8,39.2,50.8,39C50.8,39,50.8,39,50.8,39z"/>
<path class="st4" d="M52.2,38.2c-0.1-0.1,0-0.2,0-0.3c0,0,0,0,0.1,0l0.2-0.1c0.1-0.1,0.2,0,0.3,0.1C53,38,53.2,38,53.4,38
	c0.3,0,0.4-0.2,0.4-0.4c0-0.1-0.1-0.2-0.4-0.2L53,37.3c-0.3,0-0.9-0.2-1-0.7c-0.1-0.6,0.3-1.1,0.9-1.2c0,0,0,0,0.1,0
	c0.4-0.1,0.8,0,1.1,0.4c0.1,0.1,0.1,0.2,0,0.3c0,0,0,0-0.1,0l-0.2,0.1c-0.1,0.1-0.3,0-0.3-0.1c-0.1-0.1-0.2-0.1-0.4-0.1
	c-0.2,0-0.3,0.2-0.3,0.3c0,0.1,0.1,0.2,0.3,0.2l0.4,0.1c0.7,0.1,1,0.4,1.1,0.8c0.1,0.6-0.4,1-1,1.2C53,38.8,52.5,38.6,52.2,38.2z"/>
<path class="st4" d="M57.6,35.2l0,0.2c0,0.1-0.1,0.2-0.2,0.3c0,0,0,0-0.1,0l-0.7,0l0.2,2.2c0,0.1-0.1,0.2-0.2,0.3c0,0,0,0-0.1,0
	l-0.3,0c-0.1,0-0.2-0.1-0.3-0.2c0,0,0,0,0-0.1l-0.2-2.2l-0.6,0c-0.1,0-0.2-0.1-0.3-0.2c0,0,0,0,0-0.1l0-0.2c0-0.1,0.1-0.2,0.2-0.3
	c0,0,0,0,0.1,0l2.1-0.1C57.4,35,57.6,35,57.6,35.2C57.6,35.2,57.6,35.2,57.6,35.2z"/>
<path class="st4" d="M59.6,37.1l-0.3,0l-0.1,0.8c0,0.1-0.1,0.2-0.2,0.2c0,0,0,0,0,0l-0.3,0c-0.1,0-0.2-0.1-0.2-0.2c0,0,0,0,0-0.1
	l0.2-2.6c0-0.1,0.1-0.2,0.2-0.2c0,0,0,0,0.1,0l1.2,0.1c0.6,0,1,0.5,1,1c0,0,0,0.1,0,0.1c0,0.4-0.3,0.8-0.7,0.9
	c0,0.3,0.2,0.6,0.4,0.6c0.1,0,0.1,0,0.2,0c0.1,0,0.2,0,0.2,0.1l0,0.1c0.1,0.1,0,0.2-0.1,0.3c0,0,0,0,0,0c-0.2,0.1-0.4,0.1-0.6,0.1
	C59.8,38.2,59.7,37.4,59.6,37.1z M59.9,36.5c0.2,0,0.4-0.2,0.4-0.4c0-0.2-0.1-0.3-0.3-0.4l-0.6,0l0,0.8L59.9,36.5z"/>
<path class="st4" d="M61.9,38.1l0.4-2.6c0-0.1,0.1-0.2,0.2-0.2c0,0,0,0,0.1,0l0.3,0.1c0.1,0,0.2,0.1,0.2,0.2c0,0,0,0,0,0l-0.4,2.6
	c0,0.1-0.1,0.2-0.2,0.2c0,0,0,0,0,0l-0.3-0.1C62,38.4,61.9,38.3,61.9,38.1C61.9,38.2,61.9,38.2,61.9,38.1z"/>
<path class="st4" d="M63.8,37.1c0.2-0.9,1.1-1.4,2-1.1c0,0,0.1,0,0.1,0c0.3,0.1,0.6,0.3,0.9,0.6c0.1,0.1,0.1,0.2,0,0.3
	c0,0,0,0-0.1,0L66.5,37c-0.1,0.1-0.2,0.1-0.3-0.1c-0.1-0.1-0.3-0.2-0.5-0.3c-0.5-0.1-1,0.2-1.1,0.6c-0.1,0.5,0.2,1,0.6,1.1
	c0,0,0,0,0,0c0.2,0,0.4,0.1,0.6,0c0.2-0.1,0.3,0,0.3,0.1l0.1,0.2c0.1,0.1,0,0.3-0.1,0.3c-0.9,0.3-1.9-0.1-2.2-1
	C63.8,37.7,63.7,37.4,63.8,37.1L63.8,37.1z"/>
<path class="st4" d="M70.1,37.8L70,38c0,0.1-0.2,0.2-0.3,0.2c0,0,0,0,0,0l-0.6-0.3l-0.8,2c0,0.1-0.2,0.2-0.3,0.2c0,0,0,0,0,0
	l-0.3-0.1c-0.1,0-0.2-0.2-0.2-0.3c0,0,0,0,0,0l0.8-2l-0.6-0.2c-0.1,0-0.2-0.2-0.2-0.3c0,0,0,0,0,0l0.1-0.2c0-0.1,0.2-0.2,0.3-0.2
	c0,0,0,0,0,0l1.9,0.8C70.1,37.5,70.1,37.7,70.1,37.8C70.1,37.8,70.1,37.8,70.1,37.8z"/>
<path class="st4" d="M72.5,42.2l1.6-0.5l0-1.5c0-0.2,0.1-0.3,0.3-0.1l0.3,0.3c0.1,0.1,0.1,0.2,0.1,0.3l0,0.9l0.9-0.2
	c0.1,0,0.2,0,0.3,0.1l0.3,0.3c0.2,0.1,0.1,0.3-0.1,0.3l-1.4,0.4L74.8,44c0,0.2-0.1,0.3-0.3,0.1l-0.3-0.3c-0.1-0.1-0.1-0.2-0.1-0.3
	l0-1.1l-1,0.3c-0.1,0-0.2,0-0.3-0.1l-0.3-0.3C72.2,42.4,72.3,42.2,72.5,42.2z"/>
<path class="st4" d="M32.2,63.1c0.9,0,1.7,0.6,1.7,1.5c0,0,0,0.1,0,0.1c0,0.3-0.1,0.7-0.3,1c-0.1,0.1-0.2,0.1-0.3,0.1c0,0,0,0-0.1,0
	l-0.2-0.1c-0.1-0.1-0.1-0.2,0-0.3c0.1-0.2,0.1-0.4,0.1-0.5c0-0.5-0.4-0.9-0.9-0.9c-0.5,0-0.9,0.4-0.9,0.9c0,0,0,0,0,0
	c0,0.2,0.1,0.4,0.2,0.5c0.1,0.1,0.1,0.2,0,0.3c0,0,0,0,0,0l-0.2,0.2c-0.1,0.1-0.2,0.1-0.3,0c-0.6-0.7-0.5-1.8,0.3-2.4
	C31.6,63.3,31.9,63.1,32.2,63.1L32.2,63.1z"/>
<path class="st4" d="M32.2,67.9l-0.1-0.3l-0.8,0.2c-0.1,0-0.2,0-0.3-0.1c0,0,0,0,0,0L31,67.3c0-0.1,0-0.2,0.1-0.3c0,0,0,0,0.1,0
	l2.6-0.5c0.1,0,0.2,0,0.3,0.1c0,0,0,0,0,0.1l0.2,1.2c0.1,0.5-0.2,1.1-0.7,1.2c0,0-0.1,0-0.1,0c-0.4,0.1-0.9-0.1-1-0.5
	c-0.3,0.1-0.5,0.3-0.5,0.5c0,0.1,0,0.1,0.1,0.2c0.1,0.1,0,0.2-0.1,0.3l-0.1,0.1c-0.1,0.1-0.2,0.1-0.3,0c0,0,0,0,0,0
	c-0.1-0.2-0.2-0.3-0.2-0.5C31.1,68.4,31.9,68,32.2,67.9z M32.8,68.1c0.1,0.2,0.3,0.3,0.5,0.3c0.2-0.1,0.3-0.2,0.3-0.4l-0.1-0.5
	l-0.8,0.1L32.8,68.1z"/>
<path class="st4" d="M34.3,70.7l-0.5,0.2l0.3,0.9c0.1,0.1,0,0.2-0.1,0.3c0,0,0,0,0,0l-0.1,0c-0.1,0.1-0.2,0-0.3-0.1c0,0,0,0,0,0
	l-0.3-0.9l-0.5,0.2l0.4,1.1c0.1,0.1,0,0.2-0.1,0.3c0,0,0,0,0,0l-0.2,0.1c-0.1,0.1-0.2,0-0.3-0.1c0,0,0,0,0-0.1l-0.5-1.6
	c-0.1-0.1,0-0.2,0.1-0.3c0,0,0,0,0,0l2.5-0.8c0.1-0.1,0.2,0,0.3,0.1c0,0,0,0,0,0l0.5,1.6c0.1,0.1,0,0.2-0.1,0.3c0,0,0,0,0,0L35,71.9
	c-0.1,0.1-0.2,0-0.3-0.1c0,0,0,0,0,0L34.3,70.7z"/>
<path class="st4" d="M33,73.5l2.8-0.2c0.1,0,0.2,0.1,0.3,0.2l0.2,0.3c0.1,0.1,0,0.2-0.1,0.3l-1.9,2.1c-0.1,0.1-0.3,0.1-0.3,0
	l-0.2-0.3c-0.1-0.1,0-0.2,0-0.3l0.3-0.3l-0.5-1l-0.4,0c-0.1,0-0.2,0-0.3-0.2l-0.1-0.3C32.7,73.6,32.8,73.5,33,73.5z M34.6,74.8
	l0.8-0.8l-1.1,0.1L34.6,74.8z"/>
<path class="st4" d="M38.1,77.3l-0.2,0.1c-0.1,0.1-0.2,0.1-0.3,0c0,0,0,0,0,0l-0.4-0.6l-1.9,1.2c-0.1,0.1-0.2,0.1-0.3,0c0,0,0,0,0,0
	l-0.2-0.3c-0.1-0.1-0.1-0.2,0-0.3c0,0,0,0,0,0l1.9-1.2l-0.3-0.5c-0.1-0.1-0.1-0.2,0-0.3c0,0,0,0,0,0l0.2-0.1c0.1-0.1,0.2-0.1,0.3,0
	c0,0,0,0,0,0l1.1,1.8C38.2,77,38.2,77.1,38.1,77.3C38.1,77.2,38.1,77.2,38.1,77.3z"/>
<path class="st4" d="M38.6,78.7L38.2,79l0.6,0.7c0.1,0.1,0.1,0.2,0,0.3c0,0,0,0,0,0l-0.1,0.1c-0.1,0.1-0.2,0.1-0.3,0c0,0,0,0,0,0
	l-0.6-0.7l-0.4,0.3l0.7,0.9c0.1,0.1,0.1,0.2,0,0.3c0,0,0,0,0,0l-0.2,0.1c-0.1,0.1-0.2,0.1-0.3,0c0,0,0,0,0,0l-1.1-1.3
	c-0.1-0.1-0.1-0.2,0-0.3c0,0,0,0,0,0l2.1-1.7c0.1-0.1,0.2-0.1,0.3,0c0,0,0,0,0,0l1.1,1.3c0.1,0.1,0.1,0.2,0,0.3c0,0,0,0,0,0
	l-0.2,0.1c-0.1,0.1-0.2,0.1-0.3,0c0,0,0,0,0,0L38.6,78.7z"/>
<path class="st4" d="M37.7,82.4L37.7,82.4c0-0.1,0.1-0.1,0.2-0.1c0.2,0,0.4,0,0.6-0.1l0,0c-0.1-0.2-0.1-0.4,0-0.5
	c0.2-0.2,0.4-0.2,0.6,0c0,0,0,0,0,0c0.2,0.2,0.2,0.5,0,0.7c0,0,0,0,0,0c-0.3,0.3-0.8,0.4-1.3,0.3C37.7,82.5,37.7,82.5,37.7,82.4
	C37.7,82.4,37.7,82.4,37.7,82.4z"/>
<path class="st4" d="M41.4,82.9c0.5-0.8,1.6-1,2.3-0.4c0.8,0.5,1,1.6,0.4,2.3c-0.5,0.8-1.6,1-2.3,0.4c0,0,0,0-0.1,0
	C41.1,84.7,40.9,83.7,41.4,82.9C41.4,83,41.4,83,41.4,82.9z M43.5,84.4c0.3-0.4,0.1-0.9-0.2-1.2c-0.4-0.3-0.9-0.1-1.2,0.2
	c-0.2,0.4-0.2,0.9,0.2,1.1C42.6,84.9,43.2,84.9,43.5,84.4C43.5,84.5,43.5,84.4,43.5,84.4z"/>
<path class="st4" d="M47.3,86.1c-0.2,0.5-0.8,0.7-1.3,0.5c0,0-0.1,0-0.1-0.1l-0.6-0.3L45,86.9c0,0.1-0.2,0.2-0.3,0.1c0,0,0,0,0,0
	l-0.3-0.2c-0.1,0-0.2-0.2-0.1-0.3c0,0,0,0,0,0l1.3-2.3c0-0.1,0.2-0.2,0.3-0.1c0,0,0,0,0,0l1.1,0.6C47.4,84.9,47.6,85.5,47.3,86.1
	C47.4,86.1,47.4,86.1,47.3,86.1z M46.6,85.7c0.1-0.2,0.1-0.4-0.1-0.5c0,0,0,0,0,0L46,85l-0.4,0.7l0.5,0.3
	C46.3,86,46.5,85.9,46.6,85.7C46.6,85.7,46.6,85.7,46.6,85.7L46.6,85.7z"/>
<path class="st4" d="M48.9,86.3l-0.2,0.5l0.9,0.3c0.1,0,0.2,0.1,0.2,0.3c0,0,0,0,0,0l-0.1,0.1c0,0.1-0.2,0.2-0.3,0.2c0,0,0,0,0,0
	l-0.9-0.3L48.3,88l1,0.4c0.1,0,0.2,0.1,0.2,0.3c0,0,0,0,0,0l-0.1,0.2c0,0.1-0.1,0.2-0.3,0.2c0,0,0,0,0,0l-1.6-0.6
	c-0.1,0-0.2-0.1-0.2-0.3c0,0,0,0,0,0l1-2.5c0-0.1,0.1-0.2,0.3-0.2c0,0,0,0,0,0l1.6,0.6c0.1,0,0.2,0.1,0.2,0.3c0,0,0,0,0,0l-0.1,0.2
	c0,0.1-0.1,0.2-0.3,0.2c0,0,0,0,0,0L48.9,86.3z"/>
<path class="st4" d="M51.7,88.7l-0.3-0.1l-0.2,0.8c0,0.1-0.1,0.2-0.2,0.2c0,0,0,0,0,0l-0.3-0.1c-0.1,0-0.2-0.1-0.2-0.2
	c0,0,0,0,0-0.1l0.6-2.6c0-0.1,0.1-0.2,0.2-0.2c0,0,0,0,0,0l1.2,0.3c0.6,0.1,0.9,0.6,0.8,1.2c0,0,0,0.1,0,0.1
	c-0.1,0.4-0.4,0.7-0.9,0.7c0,0.3,0.1,0.6,0.3,0.6c0.1,0,0.1,0,0.2,0c0.1,0,0.2,0,0.2,0.2l0,0.1c0,0.1,0,0.3-0.2,0.3
	c-0.2,0-0.4,0-0.6,0C51.6,89.8,51.7,89,51.7,88.7z M52.1,88.2c0.2,0,0.4-0.1,0.4-0.3c0-0.2-0.1-0.4-0.3-0.4l-0.5-0.1L51.5,88
	L52.1,88.2z"/>
<path class="st4" d="M53.8,90l1.3-2.6c0.1-0.1,0.2-0.2,0.3-0.2l0.3,0c0.1,0,0.2,0.1,0.3,0.2l0.8,2.8c0,0.2,0,0.3-0.2,0.3l-0.4,0
	c-0.1,0-0.2-0.1-0.3-0.2l-0.1-0.4l-1.1-0.1l-0.2,0.3c0,0.1-0.2,0.2-0.3,0.2l-0.3,0C53.8,90.3,53.7,90.2,53.8,90z M55.8,89.2
	l-0.3-1.1l-0.5,1L55.8,89.2z"/>
<path class="st4" d="M59.7,87.7l0,0.2c0,0.1-0.1,0.2-0.2,0.2c0,0,0,0-0.1,0l-0.7,0l0,2.2c0,0.1-0.1,0.2-0.2,0.2c0,0,0,0-0.1,0
	l-0.3,0c-0.1,0-0.2-0.1-0.2-0.2c0,0,0,0,0-0.1l0-2.2l-0.6,0c-0.1,0-0.2-0.1-0.2-0.2c0,0,0,0,0-0.1l0-0.2c0-0.1,0.1-0.2,0.2-0.2
	c0,0,0,0,0.1,0l2.1,0C59.6,87.4,59.7,87.5,59.7,87.7C59.7,87.6,59.7,87.7,59.7,87.7z"/>
<path class="st4" d="M61.2,88l0.1,0.6l0.9-0.1c0.1,0,0.2,0,0.3,0.2c0,0,0,0,0,0l0,0.1c0,0.1,0,0.2-0.2,0.3c0,0,0,0,0,0l-0.9,0.1
	l0.1,0.5l1.1-0.1c0.1,0,0.2,0,0.3,0.2c0,0,0,0,0,0l0,0.2c0,0.1,0,0.2-0.2,0.3c0,0,0,0-0.1,0l-1.7,0.2c-0.1,0-0.2,0-0.3-0.2
	c0,0,0,0,0-0.1l-0.3-2.6c0-0.1,0-0.2,0.2-0.3c0,0,0,0,0.1,0l1.7-0.2c0.1,0,0.2,0,0.3,0.2c0,0,0,0,0,0.1l0,0.2c0,0.1,0,0.2-0.2,0.3
	c0,0,0,0,0,0L61.2,88z"/>
<path class="st4" d="M63.9,90.7L63.9,90.7c-0.1-0.1-0.1-0.1,0-0.2c0,0,0,0,0,0c0.1-0.2,0.2-0.4,0.2-0.6l-0.1,0
	c-0.2,0-0.4-0.1-0.4-0.3c-0.1-0.2,0.1-0.5,0.3-0.5c0,0,0,0,0,0c0.2-0.1,0.5,0.1,0.5,0.4c0,0,0,0,0,0c0.1,0.5-0.1,0.9-0.4,1.2
	C64,90.7,63.9,90.7,63.9,90.7C63.9,90.7,63.9,90.7,63.9,90.7z"/>
<path class="st4" d="M66.5,88.4c-0.1-0.4,0-0.9,0.4-1.2c-0.3,0-0.5-0.2-0.6-0.4c-0.2-0.5,0.1-0.9,0.6-1.1c0.4-0.2,0.9-0.1,1.1,0.3
	c0,0,0,0,0,0c0.1,0.3,0,0.7-0.3,0.9l0.5,0.2l0.2-0.4c0-0.1,0.1-0.1,0.1-0.1l0.4-0.2c0.1,0,0.2,0,0.1,0.1l-0.3,0.8l0.1,0.1
	c0.1,0.1,0.2,0.1,0.3,0.1c0.1,0,0.1-0.1,0.2-0.2c0.1-0.1,0.1-0.1,0.2,0l0.2,0.2c0.1,0,0.1,0.1,0,0.2c-0.1,0.2-0.3,0.4-0.5,0.5
	c-0.2,0.1-0.4,0.1-0.6,0l-0.1,0c-0.2,0.3-0.4,0.5-0.7,0.6C67.4,89.1,66.8,89,66.5,88.4C66.5,88.5,66.5,88.4,66.5,88.4z M67.5,86.4
	c-0.1-0.1-0.2-0.2-0.3-0.1c-0.1,0-0.2,0.2-0.2,0.3c0,0,0,0,0,0c0.1,0.1,0.2,0.2,0.3,0.2C67.5,86.7,67.5,86.6,67.5,86.4L67.5,86.4z
	 M68.1,88l-0.7-0.4c-0.1,0.1-0.2,0.3-0.2,0.5c0.1,0.2,0.3,0.3,0.5,0.2c0,0,0,0,0,0C67.9,88.2,68,88.1,68.1,88L68.1,88z"/>
<path class="st4" d="M71.1,85.6c-0.5-0.8-0.3-1.8,0.5-2.3c0,0,0,0,0.1,0c0.3-0.2,0.6-0.3,0.9-0.3c0.2,0,0.2,0.1,0.2,0.3l0,0.2
	c0,0.1-0.1,0.2-0.2,0.2c-0.2,0-0.3,0.1-0.5,0.2c-0.4,0.3-0.5,0.8-0.3,1.3c0.3,0.4,0.8,0.5,1.3,0.3c0.1-0.1,0.2-0.2,0.3-0.3l-0.2-0.3
	L72.8,85c-0.1,0.1-0.2,0.1-0.3,0c0,0,0,0,0,0l-0.1-0.1c-0.1-0.1-0.1-0.2,0-0.3c0,0,0,0,0,0l0.8-0.5c0.1-0.1,0.2-0.1,0.3,0
	c0,0,0,0,0,0l0.5,0.8c0.1,0.1,0.1,0.2,0,0.3c-0.1,0.4-0.4,0.7-0.7,0.9C72.7,86.6,71.7,86.4,71.1,85.6C71.2,85.7,71.1,85.7,71.1,85.6
	z"/>
<path class="st4" d="M74.2,83.6c-0.6-0.7-0.6-1.7,0.1-2.4c0.7-0.6,1.7-0.6,2.4,0.1c0.6,0.7,0.6,1.7-0.1,2.4c0,0,0,0,0,0
	C75.9,84.3,74.9,84.3,74.2,83.6C74.2,83.6,74.2,83.6,74.2,83.6z M76.1,81.9c-0.3-0.3-0.9-0.3-1.2,0c-0.3,0.3-0.3,0.9,0,1.2
	c0.3,0.3,0.8,0.3,1.2,0C76.4,82.9,76.5,82.3,76.1,81.9C76.1,82,76.1,81.9,76.1,81.9z"/>
<path class="st4" d="M78.7,81.2l-2.6-1c-0.1,0-0.2-0.1-0.1-0.2c0,0,0-0.1,0.1-0.1l0.2-0.3c0.1-0.1,0.2-0.1,0.3-0.1l1.7,0.8l-1-1.6
	c-0.1-0.1-0.1-0.2,0-0.3l0.2-0.3c0.1-0.1,0.2-0.1,0.3-0.1c0,0,0.1,0.1,0.1,0.1l1.4,2.5c0.1,0.1,0.1,0.2,0,0.3L79,81.1
	C79,81.2,78.8,81.2,78.7,81.2z"/>
<path class="st4" d="M79.1,77.1l0.5,0.3l0.5-0.8c0.1-0.1,0.2-0.2,0.3-0.1c0,0,0,0,0,0l0.1,0.1c0.1,0.1,0.1,0.2,0.1,0.3c0,0,0,0,0,0
	l-0.5,0.8l0.4,0.3l0.6-0.9c0.1-0.1,0.2-0.2,0.3-0.1c0,0,0,0,0,0l0.2,0.1c0.1,0.1,0.2,0.2,0.1,0.3c0,0,0,0,0,0l-0.9,1.4
	C80.7,79,80.6,79,80.5,79c0,0,0,0,0,0l-2.2-1.5c-0.1-0.1-0.2-0.2-0.1-0.3c0,0,0,0,0,0l0.9-1.4c0.1-0.1,0.2-0.2,0.3-0.1c0,0,0,0,0,0
	l0.2,0.1c0.1,0.1,0.2,0.2,0.1,0.3c0,0,0,0,0,0L79.1,77.1z"/>
<path class="st4" d="M82,74.8l-0.1,0.3l0.8,0.4c0.1,0,0.2,0.2,0.1,0.3c0,0,0,0,0,0l-0.1,0.3c0,0.1-0.2,0.2-0.3,0.1c0,0,0,0,0,0
	l-2.4-1.2c-0.1,0-0.2-0.2-0.1-0.3c0,0,0,0,0,0l0.5-1.1c0.2-0.5,0.8-0.8,1.3-0.5c0,0,0.1,0,0.1,0.1c0.4,0.2,0.6,0.6,0.5,1
	c0.3,0.1,0.6,0.1,0.7-0.1c0-0.1,0.1-0.1,0.1-0.2c0-0.1,0.1-0.2,0.2-0.2l0.1,0c0.1,0,0.2,0.1,0.2,0.2c0,0.2-0.1,0.4-0.1,0.6
	C83.1,75.1,82.3,74.9,82,74.8z M81.5,74.4c0.1-0.2,0-0.4-0.2-0.5c-0.2-0.1-0.4,0-0.5,0.2l-0.2,0.5l0.7,0.3L81.5,74.4z"/>
<path class="st4" d="M83.8,72.8L81.3,72c-0.1,0-0.2-0.1-0.2-0.3c0,0,0,0,0,0l0.1-0.2c0-0.1,0.1-0.2,0.2-0.2l1.8-0.6l-1.4-0.4
	c-0.1,0-0.2-0.1-0.2-0.3c0,0,0,0,0,0l0.1-0.3c0-0.1,0.1-0.2,0.3-0.2c0,0,0,0,0,0l2.5,0.8c0.1,0,0.2,0.1,0.2,0.3c0,0,0,0,0,0
	l-0.1,0.2c0,0.1-0.1,0.2-0.2,0.2l-1.8,0.6l1.4,0.5c0.1,0,0.2,0.1,0.2,0.3c0,0,0,0,0,0l-0.1,0.3C84.1,72.8,84,72.9,83.8,72.8
	C83.8,72.8,83.8,72.8,83.8,72.8z"/>
<path class="st4" d="M40.8,69.3c-2.7-9.4,2-18.1,10-23.8c10.3-7.3,21.9,5.7,24.6,11.5c2.9,6.3-0.2,18.6-9.3,22.5
	S43.5,78.8,40.8,69.3z"/>
<g>
	<defs>
		<path id="SVGID_1_" d="M40.8,69.3c-2.7-9.4,2-18.1,10-23.8c10.3-7.3,21.9,5.7,24.6,11.5c2.9,6.3-0.2,18.6-9.3,22.5
			S43.5,78.8,40.8,69.3z"/>
	</defs>
	<clipPath id="SVGID_2_">
		<use xlink:href="#SVGID_1_"  style="overflow:visible;"/>
	</clipPath>
	<g class="st5">
		<path class="st6" d="M61.5,50.9c0,0.6-0.9,0.2-2,0.5c-1.2,0.3-2-0.2-1.9-0.7c0.2-1,1-1.7,2-1.7C60.6,49.1,61.4,49.9,61.5,50.9z"/>
		<path class="st7" d="M40.8,69.3c-2.7-9.4,2-18.1,10-23.8c10.3-7.3,21.9,5.7,24.6,11.5c2.9,6.3-0.2,18.6-9.3,22.5
			S43.5,78.8,40.8,69.3z"/>
		<path class="st6" d="M73,68.9c-1.4-0.2-0.3-2.3-0.7-4.8c-0.4-2.8,0.8-4.6,2.2-4.3s4.1,2.7,3.6,5.2S74.4,69.1,73,68.9z"/>
		<path class="st6" d="M41.6,69.3c2.1-1.7,3.7,2.5,7.9,5.2c4.6,3.1,5.6,7.1,3.5,8.8s-6.3-0.1-9.5-3.9S39.5,71,41.6,69.3z"/>
		<ellipse transform="matrix(0.1086 -0.9941 0.9941 0.1086 -12.4785 114.1073)" class="st3" cx="57.4" cy="64" rx="9.3" ry="9.3"/>
		<path class="st4" d="M55.3,67.3c-4.6-3.3,0.3-10.1,4.9-6.8c1.4,1,1.3,3.6,0.8,5.2C60.2,68.6,57.5,68.8,55.3,67.3z"/>
		<path class="st3" d="M66.5,45.3L66.5,45.3c1.3,0.1,2.3,1.3,2.1,2.6l-2.6,24c-0.1,1.3-1.3,2.3-2.6,2.1l0,0
			c-1.3-0.1-2.3-1.3-2.1-2.6l2.6-24C64,46.1,65.2,45.2,66.5,45.3z"/>
	</g>
</g>
<path class="st2" d="M42.6,41.7c-6,4.4-9.9,11.1-10.6,18.4"/>
<ellipse transform="matrix(0.1086 -0.9941 0.9941 0.1086 -3.1826 79.8562)" class="st8" cx="42.9" cy="41.7" rx="1" ry="1"/>
<ellipse transform="matrix(0.1086 -0.9941 0.9941 0.1086 -31.2242 85.3803)" class="st8" cx="32" cy="60.1" rx="1" ry="1"/>
<ellipse transform="matrix(0.1086 -0.9941 0.9941 0.1086 24.1852 118.0125)" class="st8" cx="77.9" cy="45.5" rx="1" ry="1"/>
<ellipse transform="matrix(0.1086 -0.9941 0.9941 0.1086 9.9627 142.8028)" class="st8" cx="84.6" cy="65.8" rx="1" ry="1"/>
<path class="st8" d="M72.7,39.1C72.7,39.1,72.7,39.1,72.7,39.1C72.7,39.1,72.7,39.1,72.7,39.1c-0.2-0.2-0.3-0.4-0.5-0.5
	c-0.7-0.5-1.7-0.4-2.3,0.3c-0.5,0.7-0.4,1.7,0.3,2.3c0.7,0.5,1.7,0.4,2.3-0.3c0-0.1,0.1-0.1,0.1-0.2C73,40.3,73,39.6,72.7,39.1z
	 M71.9,39.2C71.9,39.2,72,39.3,71.9,39.2l-1.2,1c0-0.2,0.1-0.3,0.2-0.5C71.2,39.3,71.6,39,71.9,39.2L71.9,39.2z M70.9,40.9
	c0,0-0.1-0.1-0.1-0.1l1.3-1c0,0.2-0.1,0.4-0.2,0.6C71.7,40.9,71.3,41.1,70.9,40.9L70.9,40.9z"/>
</svg>
