<svg xmlns="http://www.w3.org/2000/svg" viewBox="0 0 136.40867 142.12676"><title>registry-box1</title><rect x="1.16126" y="1.16126" width="134.08614" height="139.80424" rx="11.08574" ry="11.08574" style="fill:#e040fb"/><rect x="1.16126" y="1.16126" width="134.08614" height="139.80424" rx="11.08574" ry="11.08574" style="fill:none;stroke:#2d398f;stroke-linecap:round;stroke-linejoin:round;stroke-width:2.32252464294434px"/><rect x="75.33382" y="64.21861" width="27.20788" height="30.42001" style="fill:#fff"/><polyline points="75.334 26.83 33.867 18.044 33.867 13.651 75.334 22.437" style="fill:#fff"/><polyline points="75.334 26.83 75.334 94.639 40.521 94.639 40.521 20.24" style="fill:#fff"/><polygon points="75.334 68.257 75.334 68.257 67.663 64.219 75.334 64.219 75.334 68.257" style="fill:#82f6f9"/><rect x="40.52074" y="64.21861" width="4.03809" height="30.49285" style="fill:#82f6f9"/><polygon points="42.742 67.89 40.521 64.219 75.334 56.842 75.334 60.983 42.742 67.89" style="fill:#82f6f9"/><rect x="75.33382" y="64.21861" width="4.03809" height="30.49285" style="fill:#82f6f9"/><rect x="86.91872" y="52.63372" width="4.03809" height="27.20788" transform="translate(155.17542 -22.70011) rotate(90)" style="fill:#82f6f9"/><rect x="40.52074" y="20.24019" width="4.03809" height="39.05004" style="fill:#82f6f9"/><polyline points="40.521 64.219 81.988 55.432 81.988 51.039 40.521 59.826" style="fill:#fff"/><polyline points="75.334 56.842 75.334 94.639 40.521 94.639 40.521 59.826" style="fill:none;stroke:#2d398f;stroke-linecap:round;stroke-linejoin:round;stroke-width:2.32252464294434px"/><polyline points="40.521 64.219 81.988 55.432 81.988 51.039 40.521 59.826" style="fill:none;stroke:#2d398f;stroke-linecap:round;stroke-linejoin:round;stroke-width:2.32252464294434px"/><polyline points="75.334 26.83 33.867 18.044 33.867 13.651 75.334 22.437" style="fill:none;stroke:#2d398f;stroke-linecap:round;stroke-linejoin:round;stroke-width:2.32252464294434px"/><rect x="54.9566" y="73.62543" width="5.97311" height="9.73626" transform="translate(115.88631 156.98711) rotate(-180)" style="fill:#82f6f9"/><line x1="60.92971" y1="83.36169" x2="54.9566" y2="83.36169" style="fill:none;stroke:#2d398f;stroke-linecap:round;stroke-linejoin:round;stroke-width:2.32252464294434px"/><path d="M54.95758,73.62606a2.98606,2.98606,0,0,1,5.97213,0Z" style="fill:#82f6f9"/><line x1="60.92971" y1="73.92436" x2="54.9566" y2="73.92436" style="fill:none;stroke:#2d398f;stroke-linecap:round;stroke-linejoin:round;stroke-width:2.32252464294434px"/><rect x="44.33852" y="73.62543" width="5.97311" height="9.73626" transform="translate(94.65014 156.98711) rotate(-180)" style="fill:#82f6f9"/><line x1="50.31162" y1="83.36169" x2="44.33852" y2="83.36169" style="fill:none;stroke:#2d398f;stroke-linecap:round;stroke-linejoin:round;stroke-width:2.32252464294434px"/><path d="M44.3395,73.62606a2.98606,2.98606,0,0,1,5.97213,0Z" style="fill:#82f6f9"/><line x1="50.31162" y1="73.92436" x2="44.33852" y2="73.92436" style="fill:none;stroke:#2d398f;stroke-linecap:round;stroke-linejoin:round;stroke-width:2.32252464294434px"/><rect x="65.57469" y="73.62543" width="5.97311" height="9.73626" transform="translate(137.12248 156.98711) rotate(-180)" style="fill:#82f6f9"/><line x1="71.54779" y1="83.36169" x2="65.57469" y2="83.36169" style="fill:none;stroke:#2d398f;stroke-linecap:round;stroke-linejoin:round;stroke-width:2.32252464294434px"/><path d="M65.57567,73.62606a2.98606,2.98606,0,0,1,5.97213,0Z" style="fill:#82f6f9"/><line x1="71.54779" y1="73.92436" x2="65.57469" y2="73.92436" style="fill:none;stroke:#2d398f;stroke-linecap:round;stroke-linejoin:round;stroke-width:2.32252464294434px"/><rect x="54.9566" y="34.22238" width="5.97311" height="9.73626" transform="translate(115.88631 78.18102) rotate(-180)" style="fill:#82f6f9"/><line x1="60.92971" y1="43.95864" x2="54.9566" y2="43.95864" style="fill:none;stroke:#2d398f;stroke-linecap:round;stroke-linejoin:round;stroke-width:2.32252464294434px"/><path d="M54.95758,34.223a2.98606,2.98606,0,0,1,5.97213,0Z" style="fill:#82f6f9"/><line x1="60.92971" y1="34.52131" x2="54.9566" y2="34.52131" style="fill:none;stroke:#2d398f;stroke-linecap:round;stroke-linejoin:round;stroke-width:2.32252464294434px"/><rect x="44.33852" y="34.22238" width="5.97311" height="9.73626" transform="translate(94.65014 78.18102) rotate(-180)" style="fill:#82f6f9"/><line x1="50.31162" y1="43.95864" x2="44.33852" y2="43.95864" style="fill:none;stroke:#2d398f;stroke-linecap:round;stroke-linejoin:round;stroke-width:2.32252464294434px"/><path d="M44.3395,34.223a2.98606,2.98606,0,0,1,5.97213,0Z" style="fill:#82f6f9"/><line x1="50.31162" y1="34.52131" x2="44.33852" y2="34.52131" style="fill:none;stroke:#2d398f;stroke-linecap:round;stroke-linejoin:round;stroke-width:2.32252464294434px"/><rect x="65.57469" y="34.22238" width="5.97311" height="9.73626" transform="translate(137.12248 78.18102) rotate(-180)" style="fill:#82f6f9"/><line x1="71.54779" y1="43.95864" x2="65.57469" y2="43.95864" style="fill:none;stroke:#2d398f;stroke-linecap:round;stroke-linejoin:round;stroke-width:2.32252464294434px"/><path d="M65.57567,34.223a2.98606,2.98606,0,0,1,5.97213,0Z" style="fill:#82f6f9"/><line x1="71.54779" y1="34.52131" x2="65.57469" y2="34.52131" style="fill:none;stroke:#2d398f;stroke-linecap:round;stroke-linejoin:round;stroke-width:2.32252464294434px"/><circle cx="94.32833" cy="45.04864" r="3.23908" style="fill:#82f6f9"/><line x1="102.5417" y1="64.21861" x2="102.5417" y2="55.00846" style="fill:none;stroke:#2d398f;stroke-linecap:round;stroke-linejoin:round;stroke-width:2.32252464294434px"/><line x1="94.32831" y1="64.21861" x2="94.32831" y2="45.04864" style="fill:none;stroke:#2d398f;stroke-linecap:round;stroke-linejoin:round;stroke-width:2.32252464294434px"/><line x1="40.52074" y1="20.24019" x2="40.52074" y2="59.82554" style="fill:none;stroke:#2d398f;stroke-linecap:round;stroke-linejoin:round;stroke-width:2.32252464294434px"/><line x1="75.33382" y1="51.9612" x2="75.33382" y2="22.43673" style="fill:none;stroke:#2d398f;stroke-linecap:round;stroke-linejoin:round;stroke-width:2.32252464294434px"/><polyline points="68.561 64.219 102.542 64.219 102.542 94.639" style="fill:none;stroke:#2d398f;stroke-linecap:round;stroke-linejoin:round;stroke-width:2.32252464294434px"/><rect x="92.00871" y="73.62543" width="5.97311" height="9.73626" style="fill:#82f6f9"/><circle cx="84.23689" cy="78.49356" r="3.98301" style="fill:#2d398f"/><line x1="92.00871" y1="83.36169" x2="97.98182" y2="83.36169" style="fill:none;stroke:#2d398f;stroke-linecap:round;stroke-linejoin:round;stroke-width:2.32252464294434px"/><line x1="135.18748" y1="94.63862" x2="1.22119" y2="94.63862" style="fill:none;stroke:#2d398f;stroke-linecap:round;stroke-linejoin:round;stroke-width:2.32252464294434px"/><path d="M24.67909,109.10129H62.23917a8.342,8.342,0,0,1,8.342,8.342v0a8.342,8.342,0,0,1-8.342,8.342H24.6791a8.342,8.342,0,0,1-8.342-8.342v0a8.342,8.342,0,0,1,8.342-8.342Z" style="fill:#fff"/><circle cx="86.98419" cy="117.44311" r="8.34218" style="fill:#fff"/><circle cx="111.72939" cy="117.44311" r="8.34218" style="fill:#fff"/></svg>