<svg xmlns="http://www.w3.org/2000/svg" viewBox="0 0 47.46479 46.76473"><title>registry-check</title><path d="M40.68239,6.58236l-26.2-5.2a7.02274,7.02274,0,0,0-8.2,5.5l-3.4,17.2-1.6,8a7.02271,7.02271,0,0,0,5.5,8.2l26.2,5.2a7.02274,7.02274,0,0,0,8.2-5.5l1.6-8,3.4-17.3A6.92238,6.92238,0,0,0,40.68239,6.58236Z" style="fill:#fff"/><path d="M5.38241,32.98236l1.6-8,3.4-17.3a7.02271,7.02271,0,0,1,8.2-5.5l-4.1-.8a7.02274,7.02274,0,0,0-8.2,5.5l-3.4,17.2-1.6,8a7.02271,7.02271,0,0,0,5.5,8.2l4.1.8A6.92236,6.92236,0,0,1,5.38241,32.98236Z" style="fill:#fff"/><path d="M42.7824,31.98236l-1.6,8a7.02271,7.02271,0,0,1-8.2,5.5l-26.2-5.2a7.02271,7.02271,0,0,1-5.5-8.2l1.6-8" style="fill:#fff"/><path d="M2.88241,24.08237l3.4-17.3a7.02271,7.02271,0,0,1,8.2-5.5l26.2,5.2a7.02271,7.02271,0,0,1,5.5,8.2l-3.4,17.3" style="fill:#fff"/><path d="M40.68239,6.58236l-26.2-5.2a7.02274,7.02274,0,0,0-8.2,5.5l-3.4,17.2-1.6,8a7.02271,7.02271,0,0,0,5.5,8.2l26.2,5.2a7.02274,7.02274,0,0,0,8.2-5.5l1.6-8,3.4-17.3A6.92238,6.92238,0,0,0,40.68239,6.58236Z" style="fill:#fff"/><path d="M5.38241,32.98236l1.6-8,3.4-17.3a7.02271,7.02271,0,0,1,8.2-5.5l-4.1-.8a7.02274,7.02274,0,0,0-8.2,5.5l-3.4,17.2-1.6,8a7.02271,7.02271,0,0,0,5.5,8.2l4.1.8A6.92236,6.92236,0,0,1,5.38241,32.98236Z" style="fill:#82f6f9"/><path d="M42.7824,31.98236l-1.6,8a7.02271,7.02271,0,0,1-8.2,5.5l-26.2-5.2a7.02271,7.02271,0,0,1-5.5-8.2l1.6-8" style="fill:none;stroke:#2d398f;stroke-linecap:round;stroke-linejoin:round;stroke-width:2.322499990463257px"/><path d="M2.88241,24.08237l3.4-17.3a7.02271,7.02271,0,0,1,8.2-5.5l26.2,5.2a7.02271,7.02271,0,0,1,5.5,8.2l-3.4,17.3" style="fill:none;stroke:#2d398f;stroke-linecap:round;stroke-linejoin:round;stroke-width:2.322499990463257px"/><path d="M19.2824,11.68236" style="fill:none;stroke:#2d398f;stroke-linecap:round;stroke-linejoin:round;stroke-width:1.608199954032898px"/><path d="M18.08242,17.68236" style="fill:none;stroke:#2d398f;stroke-linecap:round;stroke-linejoin:round;stroke-width:1.608199954032898px"/><path d="M13.98241,16.88236" style="fill:none;stroke:#2d398f;stroke-linecap:round;stroke-linejoin:round;stroke-width:1.608199954032898px"/><path d="M11.58242,10.18236" style="fill:none;stroke:#2d398f;stroke-linecap:round;stroke-linejoin:round;stroke-width:1.608199954032898px"/><path d="M35.08242,19.88236c2.9,5.1.3,7.5-3.4,13.3-4.1,6.5-13.7,3.2-16.6-1.9s-.8-11.7,4.7-14.9S32.18239,14.78236,35.08242,19.88236Z" style="fill:#82f6f9;opacity:0.23999999463558197;isolation:isolate"/><path d="M33.48241,17.28236c2.9,5.1.3,7.5-3.4,13.3-4.1,6.5-13.7,3.2-16.6-1.9s-.8-11.7,4.7-14.9S30.58242,12.18236,33.48241,17.28236Z" style="fill:#82f6f9"/><polyline points="19.782 21.482 23.582 26.382 33.582 14.582" style="fill:none;stroke:#2d398f;stroke-linecap:round;stroke-linejoin:round;stroke-width:1.6370999813079834px"/></svg>