<svg xmlns="http://www.w3.org/2000/svg" viewBox="0 0 136.40867 142.12676"><title>registry-box2</title><g style="isolation:isolate"><rect x="1.16126" y="1.16126" width="134.08614" height="139.80424" rx="11.08574" ry="11.08574" style="fill:#ffd600"/><rect x="1.16126" y="1.16126" width="134.08614" height="139.80424" rx="11.08574" ry="11.08574" style="fill:none;stroke:#2d398f;stroke-linecap:round;stroke-linejoin:round;stroke-width:2.32252464294434px"/><line x1="135.18748" y1="95.75263" x2="1.22119" y2="95.75263" style="fill:none;stroke:#2d398f;stroke-linecap:round;stroke-linejoin:round;stroke-width:2.32252464294434px"/><path d="M24.67909,109.10129H62.23917a8.342,8.342,0,0,1,8.342,8.342v0a8.342,8.342,0,0,1-8.342,8.342H24.67909a8.342,8.342,0,0,1-8.342-8.342v0A8.342,8.342,0,0,1,24.67909,109.10129Z" style="fill:#fff"/><circle cx="86.98419" cy="117.44311" r="8.34218" style="fill:#fff"/><circle cx="111.72939" cy="117.44311" r="8.34218" style="fill:#fff"/><polyline points="23.013 52.659 41.952 45.572 41.952 52.659 23.013 52.659" style="fill:#fff"/><polyline points="41.952 45.572 41.952 86.593 89.79 86.593 89.79 45.849 102.525 45.849 102.525 23.415 41.952 23.415 41.952 45.572" style="fill:#fff"/><rect x="23.01321" y="52.65915" width="18.93845" height="42.77735" style="fill:#fff"/><circle cx="82.02394" cy="12.42801" r="1.8564" style="fill:#82f6f9"/><rect x="41.95166" y="48.58982" width="4.05824" height="2.19943" style="fill:#82f6f9"/><rect x="64.43894" y="86.59275" width="3.89813" height="8.33661" style="fill:#2d398f"/><path d="M68.33707,94.92936s-.14934,1.85236-.86565,0c-.194-.50174.07209-2.92035-.96835-5.116a10.51071,10.51071,0,0,0-2.37075-3.22058h4.20474Z" style="fill:#2d398f;opacity:0.65;mix-blend-mode:multiply"/><rect x="79.06207" y="86.59275" width="3.89813" height="8.33661" style="fill:#2d398f"/><path d="M82.9602,94.92936s-.14934,1.85236-.86565,0c-.194-.50174.07209-2.92035-.96835-5.116a10.51071,10.51071,0,0,0-2.37075-3.22058H82.9602Z" style="fill:#2d398f;opacity:0.65;mix-blend-mode:multiply"/><rect x="49.81581" y="86.59275" width="3.89813" height="8.33661" style="fill:#2d398f"/><path d="M53.71394,94.92936s-.14934,1.85236-.86565,0c-.194-.50174.07209-2.92035-.96835-5.116a10.51071,10.51071,0,0,0-2.37075-3.22058h4.20474Z" style="fill:#2d398f;opacity:0.65;mix-blend-mode:multiply"/><polygon points="27.978 52.659 41.952 47.506 41.952 45.572 23.013 52.659 27.978 52.659" style="fill:#82f6f9"/><rect x="23.01321" y="61.62191" width="2.31433" height="33.81459" style="fill:#82f6f9"/><rect x="29.74932" y="53.16683" width="2.31433" height="8.45508" style="fill:#82f6f9"/><rect x="23.01321" y="61.62191" width="14.45748" height="2.53437" style="fill:#82f6f9"/><rect x="23.01321" y="68.55392" width="18.93845" height="2.87459" style="fill:#82f6f9"/><rect x="23.01321" y="68.55392" width="18.93845" height="26.88255" style="fill:none;stroke:#2d398f;stroke-linecap:round;stroke-linejoin:round;stroke-width:2.32252464294434px"/><rect x="23.01321" y="52.65915" width="18.93845" height="15.89478" style="fill:none;stroke:#2d398f;stroke-linecap:round;stroke-linejoin:round;stroke-width:2.32252464294434px"/><line x1="23.01321" y1="68.55392" x2="41.95166" y2="68.55392" style="fill:none;stroke:#2d398f;stroke-linecap:round;stroke-linejoin:round;stroke-width:2.32252464294434px"/><line x1="23.01321" y1="61.62191" x2="37.47069" y2="61.62191" style="fill:none;stroke:#2d398f;stroke-linecap:round;stroke-linejoin:round;stroke-width:2.32252464294434px"/><line x1="32.48243" y1="52.65915" x2="32.48243" y2="61.62191" style="fill:none;stroke:#2d398f;stroke-linecap:round;stroke-linejoin:round;stroke-width:2.32252464294434px"/><line x1="27.35828" y1="68.55392" x2="27.35828" y2="95.27068" style="fill:none;stroke:#2d398f;stroke-linecap:round;stroke-linejoin:round;stroke-width:2.32252464294434px"/><rect x="36.26671" y="73.20399" width="3.42333" height="5.58008" style="fill:#82f6f9"/><circle cx="31.81249" cy="75.99403" r="2.28276" style="fill:#2d398f"/><line x1="36.26671" y1="78.78407" x2="39.69003" y2="78.78407" style="fill:none;stroke:#2d398f;stroke-linecap:round;stroke-linejoin:round;stroke-width:2.32252464294434px"/><rect x="30.04436" y="83.43414" width="3.42333" height="5.58008" transform="translate(63.51206 172.44837) rotate(-180)" style="fill:#82f6f9"/><line x1="33.46769" y1="89.01422" x2="30.04436" y2="89.01422" style="fill:none;stroke:#2d398f;stroke-linecap:round;stroke-linejoin:round;stroke-width:2.32252464294434px"/><rect x="36.26671" y="83.43414" width="3.42333" height="5.58008" transform="translate(75.95674 172.44837) rotate(-180)" style="fill:#82f6f9"/><line x1="39.69003" y1="89.01422" x2="36.26671" y2="89.01422" style="fill:none;stroke:#2d398f;stroke-linecap:round;stroke-linejoin:round;stroke-width:2.32252464294434px"/><rect x="94.42988" y="29.82802" width="3.42333" height="11.10857" transform="translate(192.28309 70.7646) rotate(-180)" style="fill:#82f6f9"/><line x1="97.85321" y1="40.93659" x2="94.42988" y2="40.93659" style="fill:none;stroke:#2d398f;stroke-linecap:round;stroke-linejoin:round;stroke-width:2.32252464294434px"/><line x1="97.85321" y1="35.38181" x2="94.42988" y2="35.38181" style="fill:none;stroke:#2d398f;stroke-linecap:round;stroke-linejoin:round;stroke-width:2.32252464294434px"/><path d="M94.43044,29.82838a1.71138,1.71138,0,1,1,3.42277,0Z" style="fill:#82f6f9"/><line x1="97.85321" y1="29.99934" x2="94.42988" y2="29.99934" style="fill:none;stroke:#2d398f;stroke-linecap:round;stroke-linejoin:round;stroke-width:2.32252464294434px"/><rect x="85.01955" y="29.82802" width="3.42333" height="11.10857" transform="translate(173.46244 70.7646) rotate(-180)" style="fill:#82f6f9"/><line x1="88.44288" y1="40.93659" x2="85.01955" y2="40.93659" style="fill:none;stroke:#2d398f;stroke-linecap:round;stroke-linejoin:round;stroke-width:2.32252464294434px"/><line x1="88.44288" y1="35.38181" x2="85.01955" y2="35.38181" style="fill:none;stroke:#2d398f;stroke-linecap:round;stroke-linejoin:round;stroke-width:2.32252464294434px"/><path d="M85.02012,29.82838a1.71138,1.71138,0,1,1,3.42277,0Z" style="fill:#82f6f9"/><line x1="88.44288" y1="29.99934" x2="85.01955" y2="29.99934" style="fill:none;stroke:#2d398f;stroke-linecap:round;stroke-linejoin:round;stroke-width:2.32252464294434px"/><rect x="75.60923" y="29.82802" width="3.42333" height="11.10857" transform="translate(154.64179 70.7646) rotate(-180)" style="fill:#82f6f9"/><line x1="79.03256" y1="40.93659" x2="75.60923" y2="40.93659" style="fill:none;stroke:#2d398f;stroke-linecap:round;stroke-linejoin:round;stroke-width:2.32252464294434px"/><line x1="79.03256" y1="35.38181" x2="75.60923" y2="35.38181" style="fill:none;stroke:#2d398f;stroke-linecap:round;stroke-linejoin:round;stroke-width:2.32252464294434px"/><path d="M75.60979,29.82838a1.71138,1.71138,0,1,1,3.42277,0Z" style="fill:#82f6f9"/><line x1="79.03256" y1="29.99934" x2="75.60923" y2="29.99934" style="fill:none;stroke:#2d398f;stroke-linecap:round;stroke-linejoin:round;stroke-width:2.32252464294434px"/><rect x="66.1989" y="29.82802" width="3.42333" height="11.10857" transform="translate(135.82114 70.7646) rotate(-180)" style="fill:#82f6f9"/><line x1="69.62223" y1="40.93659" x2="66.1989" y2="40.93659" style="fill:none;stroke:#2d398f;stroke-linecap:round;stroke-linejoin:round;stroke-width:2.32252464294434px"/><line x1="69.62223" y1="35.38181" x2="66.1989" y2="35.38181" style="fill:none;stroke:#2d398f;stroke-linecap:round;stroke-linejoin:round;stroke-width:2.32252464294434px"/><path d="M66.19947,29.82838a1.71138,1.71138,0,1,1,3.42277,0Z" style="fill:#82f6f9"/><line x1="69.62223" y1="29.99934" x2="66.1989" y2="29.99934" style="fill:none;stroke:#2d398f;stroke-linecap:round;stroke-linejoin:round;stroke-width:2.32252464294434px"/><rect x="56.78858" y="29.82802" width="3.42333" height="11.10857" transform="translate(117.00049 70.7646) rotate(-180)" style="fill:#82f6f9"/><line x1="60.21191" y1="40.93659" x2="56.78858" y2="40.93659" style="fill:none;stroke:#2d398f;stroke-linecap:round;stroke-linejoin:round;stroke-width:2.32252464294434px"/><line x1="60.21191" y1="35.38181" x2="56.78858" y2="35.38181" style="fill:none;stroke:#2d398f;stroke-linecap:round;stroke-linejoin:round;stroke-width:2.32252464294434px"/><path d="M56.78914,29.82838a1.71138,1.71138,0,1,1,3.42277,0Z" style="fill:#82f6f9"/><line x1="60.21191" y1="29.99934" x2="56.78858" y2="29.99934" style="fill:none;stroke:#2d398f;stroke-linecap:round;stroke-linejoin:round;stroke-width:2.32252464294434px"/><rect x="47.37825" y="29.82802" width="3.42333" height="11.10857" transform="translate(98.17983 70.7646) rotate(-180)" style="fill:#82f6f9"/><line x1="50.80158" y1="40.93659" x2="47.37825" y2="40.93659" style="fill:none;stroke:#2d398f;stroke-linecap:round;stroke-linejoin:round;stroke-width:2.32252464294434px"/><line x1="50.80158" y1="35.38181" x2="47.37825" y2="35.38181" style="fill:none;stroke:#2d398f;stroke-linecap:round;stroke-linejoin:round;stroke-width:2.32252464294434px"/><path d="M47.37881,29.82838a1.71138,1.71138,0,1,1,3.42277,0Z" style="fill:#82f6f9"/><line x1="50.80158" y1="29.99934" x2="47.37825" y2="29.99934" style="fill:none;stroke:#2d398f;stroke-linecap:round;stroke-linejoin:round;stroke-width:2.32252464294434px"/><polygon points="89.303 50.081 89.303 47.824 73.943 47.824 77.353 50.081 89.303 50.081" style="fill:#82f6f9"/><path d="M120.29964,42.84488a1.81212,1.81212,0,0,0,3.54608,0" style="fill:none;stroke:#2d398f;stroke-linecap:round;stroke-linejoin:round;stroke-width:2.32252464294434px"/><path d="M116.75963,42.88292a1.81212,1.81212,0,0,0,3.54608,0" style="fill:none;stroke:#2d398f;stroke-linecap:round;stroke-linejoin:round;stroke-width:2.32252464294434px"/><path d="M113.20445,42.84488a1.81212,1.81212,0,0,0,3.54608,0" style="fill:none;stroke:#2d398f;stroke-linecap:round;stroke-linejoin:round;stroke-width:2.32252464294434px"/><path d="M109.66445,42.88292a1.81212,1.81212,0,0,0,3.54608,0" style="fill:none;stroke:#2d398f;stroke-linecap:round;stroke-linejoin:round;stroke-width:2.32252464294434px"/><path d="M106.11534,42.88292a1.81212,1.81212,0,0,0,3.54608,0" style="fill:none;stroke:#2d398f;stroke-linecap:round;stroke-linejoin:round;stroke-width:2.32252464294434px"/><path d="M102.56926,42.88292a1.81212,1.81212,0,0,0,3.54608,0" style="fill:none;stroke:#2d398f;stroke-linecap:round;stroke-linejoin:round;stroke-width:2.32252464294434px"/><polygon points="123.338 45.734 124.353 45.734 124.353 41.88 123.846 41.351 123.338 41.88 123.338 45.734" style="fill:#2d398f"/><polygon points="119.792 45.734 120.807 45.734 120.807 41.88 120.3 41.351 119.792 41.88 119.792 45.734" style="fill:#2d398f"/><polygon points="116.246 45.734 117.261 45.734 117.261 41.88 116.754 41.351 116.246 41.88 116.246 45.734" style="fill:#2d398f"/><polygon points="112.7 45.734 113.715 45.734 113.715 41.88 113.207 41.351 112.7 41.88 112.7 45.734" style="fill:#2d398f"/><polygon points="109.154 45.734 110.169 45.734 110.169 41.88 109.661 41.351 109.154 41.88 109.154 45.734" style="fill:#2d398f"/><polygon points="105.608 45.734 106.623 45.734 106.623 41.88 106.115 41.351 105.608 41.88 105.608 45.734" style="fill:#2d398f"/><polygon points="102.062 45.734 103.077 45.734 103.077 41.88 102.569 41.351 102.062 41.88 102.062 45.734" style="fill:#2d398f"/><path d="M120.29964,42.2595a1.81212,1.81212,0,0,0,3.54608,0" style="fill:none;stroke:#2d398f;stroke-linecap:round;stroke-linejoin:round;stroke-width:2.32252464294434px"/><path d="M116.75963,42.29754a1.81212,1.81212,0,0,0,3.54608,0" style="fill:none;stroke:#2d398f;stroke-linecap:round;stroke-linejoin:round;stroke-width:2.32252464294434px"/><path d="M113.20445,42.2595a1.81212,1.81212,0,0,0,3.54608,0" style="fill:none;stroke:#2d398f;stroke-linecap:round;stroke-linejoin:round;stroke-width:2.32252464294434px"/><path d="M109.66445,42.29754a1.81212,1.81212,0,0,0,3.54608,0" style="fill:none;stroke:#2d398f;stroke-linecap:round;stroke-linejoin:round;stroke-width:2.32252464294434px"/><path d="M106.11534,42.29754a1.81212,1.81212,0,0,0,3.54608,0" style="fill:none;stroke:#2d398f;stroke-linecap:round;stroke-linejoin:round;stroke-width:2.32252464294434px"/><path d="M102.56926,42.29754a1.81212,1.81212,0,0,0,3.54608,0" style="fill:none;stroke:#2d398f;stroke-linecap:round;stroke-linejoin:round;stroke-width:2.32252464294434px"/><rect x="73.86113" y="45.35654" width="50.49187" height="2.46754" transform="translate(198.21412 93.18063) rotate(-180)" style="fill:#2d398f"/><polyline points="41.952 45.572 41.952 86.593 89.79 86.593 89.79 45.849 102.525 45.849 102.525 23.415 41.952 23.415 41.952 45.572" style="fill:none;stroke:#2d398f;stroke-linecap:round;stroke-linejoin:round;stroke-width:2.32252464294434px"/><line x1="23.01321" y1="52.65915" x2="41.95166" y2="45.57244" style="fill:none;stroke:#2d398f;stroke-linecap:round;stroke-linejoin:round;stroke-width:2.32252464294434px"/><rect x="47.1052" y="76.13816" width="37.53096" height="5.58008" transform="translate(131.74136 157.85639) rotate(-180)" style="fill:#82f6f9"/><line x1="47.37825" y1="81.71824" x2="84.63616" y2="81.71824" style="fill:none;stroke:#2d398f;stroke-linecap:round;stroke-linejoin:round;stroke-width:2.32252464294434px"/><rect x="47.1052" y="65.81905" width="37.53096" height="5.58008" transform="translate(131.74136 137.21818) rotate(-180)" style="fill:#82f6f9"/><line x1="47.37825" y1="71.39913" x2="84.63616" y2="71.39913" style="fill:none;stroke:#2d398f;stroke-linecap:round;stroke-linejoin:round;stroke-width:2.32252464294434px"/><rect x="47.1052" y="55.49995" width="37.53096" height="5.58008" transform="translate(131.74136 116.57998) rotate(-180)" style="fill:#82f6f9"/><line x1="47.37825" y1="61.08003" x2="84.63616" y2="61.08003" style="fill:none;stroke:#2d398f;stroke-linecap:round;stroke-linejoin:round;stroke-width:2.32252464294434px"/><rect x="59.67761" y="50.45971" width="4.05824" height="2.19943" style="fill:#82f6f9"/><rect x="62.54892" y="76.09002" width="2.37384" height="1.28655" style="fill:#82f6f9"/><rect x="43.98078" y="25.0744" width="2.37384" height="1.28655" style="fill:#82f6f9"/><rect x="55.60166" y="44.92917" width="2.37384" height="1.28655" style="fill:#82f6f9"/><line x1="86.73122" y1="23.41478" x2="86.73122" y2="18.13622" style="fill:none;stroke:#2d398f;stroke-linecap:round;stroke-linejoin:round;stroke-width:2.32252464294434px"/><line x1="82.02393" y1="23.41478" x2="82.02393" y2="12.42801" style="fill:none;stroke:#2d398f;stroke-linecap:round;stroke-linejoin:round;stroke-width:2.32252464294434px"/><line x1="89.7897" y1="56.77196" x2="102.18982" y2="47.48412" style="fill:none;stroke:#2d398f;stroke-linecap:round;stroke-linejoin:round;stroke-width:2.32252464294434px"/></g></svg>