<?xml version="1.0" standalone="no"?>
<!DOCTYPE svg PUBLIC "-//W3C//DTD SVG 20010904//EN"
 "http://www.w3.org/TR/2001/REC-SVG-20010904/DTD/svg10.dtd">
<svg version="1.0" xmlns="http://www.w3.org/2000/svg"
 width="300.000000pt" height="300.000000pt" viewBox="0 0 300.000000 300.000000"
 preserveAspectRatio="xMidYMid meet">
<metadata>
Created by potrace 1.11, written by Peter Selinger 2001-2013
</metadata>
<g transform="translate(0.000000,300.000000) scale(0.100000,-0.100000)"
fill="#000000" stroke="none">
<path d="M1180 2961 c-173 -37 -315 -119 -480 -277 -380 -365 -597 -803 -617
-1244 -9 -205 21 -395 97 -603 l32 -89 31 37 c52 64 106 75 179 39 15 -8 96
-69 180 -137 145 -116 192 -148 386 -262 146 -87 282 -232 313 -335 l12 -38
86 -8 c273 -22 574 35 806 154 316 163 553 481 655 881 11 44 20 84 20 90 0 6
-27 -2 -60 -19 -33 -17 -80 -33 -104 -36 -38 -6 -45 -3 -63 20 -17 21 -22 46
-27 124 -4 53 -16 156 -27 227 -18 109 -19 140 -10 189 13 73 37 114 82 144
41 29 90 24 158 -14 24 -13 46 -22 49 -19 10 10 -31 133 -73 220 -95 195 -318
440 -575 633 l-55 42 -5 -968 -5 -969 -28 -36 c-74 -97 -206 -103 -285 -12
l-33 37 -77 -35 c-384 -175 -830 9 -979 404 -76 202 -63 403 40 604 59 115
190 244 307 303 221 110 420 108 678 -5 9 -4 12 71 12 358 0 220 4 379 10 401
6 21 22 51 36 67 l24 29 -77 30 c-239 91 -424 113 -613 73z m399 -439 c20 -16
45 -45 56 -65 18 -32 18 -38 5 -51 -8 -8 -37 -19 -65 -24 -27 -6 -75 -16 -105
-23 -46 -10 -61 -10 -85 2 -48 23 -47 81 2 140 55 65 127 73 192 21z"/>
<path d="M1373 1696 c-142 -46 -235 -177 -236 -332 0 -58 5 -82 27 -127 34
-70 99 -130 184 -170 86 -40 192 -44 259 -9 97 51 138 141 138 307 0 129 -19
197 -71 255 -64 71 -207 107 -301 76z"/>
</g>
</svg>
