<!-- Generator: Adobe Illustrator 21.1.0, SVG Export Plug-In  -->
<svg version="1.1"
	 xmlns="http://www.w3.org/2000/svg" xmlns:xlink="http://www.w3.org/1999/xlink" xmlns:a="http://ns.adobe.com/AdobeSVGViewerExtensions/3.0/"
	 x="0px" y="0px" width="226.6px" height="60.2px" viewBox="0 0 226.6 60.2" style="enable-background:new 0 0 226.6 60.2;"
	 xml:space="preserve">
<style type="text/css">
	.st0{fill:#2C398F;}
	.st1{clip-path:url(#SVGID_2_);fill:#04FFCC;}
	.st2{clip-path:url(#SVGID_2_);fill:none;}
	.st3{clip-path:url(#SVGID_2_);}
	.st4{fill:#7DF8FB;}
	.st5{clip-path:url(#SVGID_4_);fill:#04FFCC;}
	.st6{clip-path:url(#SVGID_4_);fill:none;}
	.st7{clip-path:url(#SVGID_4_);}
</style>
<defs>
</defs>
<path class="st0" d="M2.1,40.4c-5.4-13.3,0-26.6,10.8-36.2C26.7-7.9,45.7,9.1,50.4,17.1c5.1,8.7,2.6,27.1-9.9,34.2
	S7.5,53.8,2.1,40.4z"/>
<g>
	<path class="st0" d="M84.5,12.9H83c-0.9,0-1.4,0.5-1.4,1.4v8.4c-1.4-2.1-3.5-2.9-5.8-2.9c-5,0-8.3,3.9-8.3,8.9s3.4,8.9,8.3,8.9
		c2.3,0,4.4-0.8,5.8-2.9v1.1c0,0.9,0.5,1.4,1.4,1.4h1.5c0.9,0,1.4-0.5,1.4-1.4V14.3C85.9,13.4,85.4,12.9,84.5,12.9z M76.6,34
		c-3.1,0-4.8-2.4-4.8-5.3c0-2.9,1.8-5.3,4.8-5.3c3,0,5,2.3,5.1,5.3C81.6,31.8,79.6,34,76.6,34z"/>
	<path class="st0" d="M92.9,12.6c-1.7,0-2.7,1.1-2.7,2.5c0,1.4,1.1,2.5,2.7,2.5c1.7,0,2.8-1.1,2.8-2.5
		C95.6,13.7,94.6,12.6,92.9,12.6z"/>
	<path class="st0" d="M93.6,20.1h-1.5c-0.9,0-1.4,0.5-1.4,1.4v14.2c0,0.9,0.5,1.4,1.4,1.4h1.5c0.9,0,1.4-0.5,1.4-1.4V21.6
		C95.1,20.7,94.6,20.1,93.6,20.1z"/>
	<path class="st0" d="M107.3,27.3l-2.3-0.8c-0.9-0.3-1.8-0.8-1.8-1.7c0-1,0.8-1.8,2.1-1.8c0.7,0,1.3,0.2,1.9,0.8
		c0.5,0.6,1,0.9,1.8,0.7l0.8-0.2c0.9-0.2,1.4-0.9,0.8-1.8c-1.2-2-3.2-2.7-5.3-2.7c-3.5,0-6,2.2-6,5.3c0,2.8,2.4,4.1,4.5,4.8l2.2,0.8
		c1.1,0.4,1.8,0.9,1.8,1.8c0,1.1-1,1.9-2.5,1.9c-1.2,0-2.2-0.5-2.8-1.2c-0.6-0.6-1-1-1.8-0.8l-0.9,0.2c-0.9,0.2-1.4,0.9-0.9,1.8
		c1.1,2.2,3.6,3.4,6.4,3.4c3.5,0,6.5-1.8,6.5-5.3C111.8,30.4,110.7,28.4,107.3,27.3z"/>
	<path class="st0" d="M126.4,30.9h-1.8c-0.5,0-0.7,0.3-0.6,0.8c0,0.2,0,0.4,0,0.6c0,1-0.8,1.7-1.7,1.7c-0.9,0-1.7-0.6-1.7-2.2v-8.4
		h4.2c0.5,0,0.8-0.3,0.8-0.8v-1.8c0-0.5-0.3-0.8-0.8-0.8h-4.2v-3.6c0-0.7-0.4-1.1-1.1-1.1h-1.2c-0.6,0-1.1,0.3-1.2,1l-0.6,3.7h-2.1
		c-0.5,0-0.8,0.3-0.8,0.8v1.8c0,0.5,0.3,0.8,0.8,0.8h1.9v8.3c0,4.6,2.9,5.9,5.7,5.9c3.2,0,5.4-1.7,5.4-4.8c0-0.1,0-0.7-0.2-1.3
		C127.1,31.1,126.8,30.9,126.4,30.9z"/>
	<path class="st0" d="M139.8,19.8c-0.2,0-0.5-0.1-0.7-0.1c-1.8,0-3.9,1.2-4.5,4.2v-2.4c0-0.9-0.5-1.4-1.4-1.4h-1.4
		c-0.9,0-1.4,0.5-1.4,1.4v14.2c0,0.9,0.5,1.4,1.4,1.4h1.5c0.9,0,1.4-0.5,1.4-1.4v-5.4c0-5.6,2.4-6.6,4-6.6c0.3,0,0.6,0,0.9,0.1
		c0.6,0.1,1-0.3,1-1.1v-1.7C140.7,20.5,140.6,19.9,139.8,19.8z"/>
	<path class="st0" d="M145.6,12.6c-1.7,0-2.7,1.1-2.7,2.5c0,1.4,1.1,2.5,2.7,2.5c1.7,0,2.8-1.1,2.8-2.5
		C148.4,13.7,147.3,12.6,145.6,12.6z"/>
	<path class="st0" d="M146.4,20.1h-1.5c-0.9,0-1.4,0.5-1.4,1.4v14.2c0,0.9,0.5,1.4,1.4,1.4h1.5c0.9,0,1.4-0.5,1.4-1.4V21.6
		C147.8,20.7,147.3,20.1,146.4,20.1z"/>
	<path class="st0" d="M161.4,23.4c0.4,0,1.7,0,3,0.7c0.8,0.4,1.4,0.4,2-0.4l0.4-0.5c0.6-0.7,0.5-1.5-0.3-2c-1.9-1.1-3.8-1.4-5.3-1.4
		c-6.1,0-9.8,4.1-9.8,9.1c0,4.9,3.8,8.8,9.8,8.8c1.4,0,3.1-0.3,4.8-1.2c1.1-0.6,1.3-1.4,0.7-2.2l-0.4-0.5c-0.5-0.7-1.1-0.7-2-0.3
		c-1.3,0.6-2.6,0.7-3,0.7c-3.3,0-5.7-2.2-5.7-5.3C155.8,25.6,158.1,23.4,161.4,23.4z"/>
	<path class="st0" d="M182.2,30.9h-1.8c-0.5,0-0.7,0.3-0.6,0.8c0,0.2,0,0.4,0,0.6c0,1-0.8,1.7-1.7,1.7c-0.9,0-1.7-0.6-1.7-2.2v-8.4
		h4.2c0.5,0,0.8-0.3,0.8-0.8v-1.8c0-0.5-0.3-0.8-0.8-0.8h-4.2v-3.6c0-0.7-0.4-1.1-1.1-1.1h-1.2c-0.6,0-1.1,0.3-1.2,1l-0.6,3.7h-2.1
		c-0.5,0-0.8,0.3-0.8,0.8v1.8c0,0.5,0.3,0.8,0.8,0.8h1.9v8.3c0,4.6,2.9,5.9,5.7,5.9c3.2,0,5.4-1.7,5.4-4.8c0-0.1,0-0.7-0.2-1.3
		C183,31.1,182.7,30.9,182.2,30.9z"/>
	<path class="st0" d="M195.8,13.3c-6.4,0-10.3,5.5-10.3,12.2c0,6.7,3.9,12.2,10.3,12.2c6.4,0,10.4-5.5,10.4-12.2
		C206.2,18.7,202.2,13.3,195.8,13.3z M195.8,16.9c1.6,0,2.9,0.7,3.9,1.8L190.3,29c-0.3-1.1-0.5-2.3-0.5-3.6
		C189.8,20.7,192.1,16.9,195.8,16.9z M195.8,33.9c-1.4,0-2.7-0.6-3.6-1.5l9.3-10.2c0.3,1,0.4,2.1,0.4,3.2
		C201.9,30.2,199.6,33.9,195.8,33.9z"/>
	<path class="st0" d="M226.2,35.5l-5.9-7.1l5.4-6.5c0.8-0.9,0.4-1.8-0.8-1.8h-1.6c-0.7,0-1.3,0.3-1.8,0.8l-3.9,4.7l-4-4.7
		c-0.5-0.6-1-0.8-1.7-0.8h-1.6c-1.2,0-1.6,0.8-0.8,1.8l5.4,6.5l-5.9,7.1c-0.8,0.9-0.4,1.8,0.8,1.8h1.6c0.7,0,1.3-0.2,1.8-0.8
		l4.5-5.4l4.5,5.4c0.5,0.6,1,0.8,1.8,0.8h1.6C226.6,37.2,227,36.4,226.2,35.5z"/>
</g>
<g>
	<defs>
		<path id="SVGID_1_" d="M2.1,40.4c-5.4-13.3,0-26.6,10.8-36.2C26.7-7.9,45.7,9.1,50.4,17.1c5.1,8.7,2.6,27.1-9.9,34.2
			S7.5,53.8,2.1,40.4z"/>
	</defs>
	<clipPath id="SVGID_2_">
		<use xlink:href="#SVGID_1_"  style="overflow:visible;"/>
	</clipPath>
	<path class="st1" d="M29.3,10.4c0,0.9-1.3,0.5-2.8,1c-1.7,0.6-2.9,0.1-2.9-0.8s1.1-2.8,2.7-2.9S29.3,9.6,29.3,10.4z"/>
	<path class="st2" d="M2.1,40.4c-5.4-13.3,0-26.6,10.8-36.2C26.7-7.9,45.7,9.1,50.4,17.1c5.1,8.7,2.6,27.1-9.9,34.2
		S7.5,53.8,2.1,40.4z"/>
	<path class="st1" d="M48.9,34.7c-2-0.1-0.8-3.3-1.8-6.9c-1-4,0.5-6.8,2.5-6.7c2,0.1,6.3,3.2,6.1,7S50.9,34.9,48.9,34.7z"/>
	<path class="st1" d="M3.3,40.3c2.7-2.8,5.8,3,12.3,6.3c7.2,3.7,9.3,9.4,6.5,12.2c-2.7,2.8-9.2,0.9-14.4-4.2S0.6,43.1,3.3,40.3z"/>
	<g class="st3">
		<circle class="st4" cx="25.4" cy="30.1" r="13.6"/>
		<path class="st0" d="M23,35.2c-7.2-4.1-1.1-14.7,6.1-10.6c2.1,1.2,2.4,5.1,2,7.5C30.2,36.3,26.3,37.1,23,35.2z"/>
		<path class="st4" d="M36.1,43.7h-0.9c-1.7,0-3-1.4-3-3V4.5c0-1.7,1.4-3,3-3h0.9c1.7,0,3,1.4,3,3v36.2
			C39.2,42.3,37.8,43.7,36.1,43.7z"/>
	</g>
</g>
</svg>
