<svg xmlns="http://www.w3.org/2000/svg" viewBox="0 0 767.90674 715.71691"><title>team-intro-blob</title><path d="M594.13257,431.144C542.8584,502.5991,428.85745,470.03823,323.04343,585.02079c-57.42622,62.402-54.45916,105.25461-99.68459,123.74593-73.5601,30.07653-184.158-41.28212-213.227-140.43885-30.88837-105.36277,13.941-239.51318,65.93931-321.87852C128.56005,163.30689,244.4918,42.8116,360.12977,28.818,540.27483,7.01831,676.93087,315.75731,594.13257,431.144Z" style="fill:#7df8fb"/><g style="opacity:0.39"><path d="M633.33222,343.09611v.50092a15.50181,15.50181,0,0,1,3.84637-.50092Z" style="fill:#dbfef7"/><path d="M559.33222,374.41349v-.12036a15.57841,15.57841,0,0,1-1.84961.12036Z" style="fill:#dbfef7"/><path d="M633.33222,374.41349h3.84637a15.50181,15.50181,0,0,1-3.84637-.50092Z" style="fill:#dbfef7"/><path d="M559.33222,343.09611h-1.84961a15.57841,15.57841,0,0,1,1.84961.12036Z" style="fill:#dbfef7"/><path d="M631.85242,298.02775V295.816a9.419,9.419,0,0,1,9.39136-9.39136h6.88953a18.05287,18.05287,0,0,0,18-17.99994v-.00006a18.05287,18.05287,0,0,0-18-17.99994H421.24378a18.05287,18.05287,0,0,0-18,17.99994v.00006a18.05287,18.05287,0,0,0,18,17.99994H574.08253a9.419,9.419,0,0,1,9.3913,9.39136v2.21173a9.419,9.419,0,0,1-9.3913,9.39136H549.505A18.06,18.06,0,0,0,534.83222,325.096v.00006a18.05293,18.05293,0,0,0,18,18h6.5v.12036a15.707,15.707,0,0,1,13.80908,15.53827v.00006a15.707,15.707,0,0,1-13.80908,15.53833v.12036H527.83216a17.904,17.904,0,0,0-11.43256,4.1236,18.22766,18.22766,0,0,0-3.48242,3.83051,18.023,18.023,0,0,0-1.66467,3.05682,17.81114,17.81114,0,0,0-1.3269,5.15546,17.99433,17.99433,0,0,0-.09338,1.83362v.00006a18.0447,18.0447,0,0,0,18,17.99994h5c15.5,0,6,18,27.5,18H749.9068a18.0981,18.0981,0,0,0,16.57965-11.01093,17.83458,17.83458,0,0,0,1.42029-6.989v-.00012c0-.44873-.02747-.89221-.06787-1.33295a18.047,18.047,0,0,0-17.93207-16.667h-7.00562c-15.14807,0-4.99445-18-28.99445-18H633.33222v-.50092A15.70645,15.70645,0,0,1,621.5199,358.7548v-.00006A15.70643,15.70643,0,0,1,633.33222,343.597v-.50092h8.88306a18.05291,18.05291,0,0,0,17.99994-18V325.096a18.05061,18.05061,0,0,0-14.72-17.67694h-4.25146A9.419,9.419,0,0,1,631.85242,298.02775Z" style="fill:#dbfef7"/></g><g style="opacity:0.39"><path d="M164.51328,43.6614h-2.24316a18.89355,18.89355,0,0,1,2.24316.146Z" style="fill:#dbfef7"/><path d="M254.26173,44.26892a18.80086,18.80086,0,0,1,4.66495-.60752h-4.66495Z" style="fill:#dbfef7"/><path d="M239.93555,62.65259v-.00007a19.04919,19.04919,0,0,1,14.32618-18.3836V43.6614h10.77352A21.89483,21.89483,0,0,0,286.866,21.83077V21.8307A21.89489,21.89489,0,0,0,265.03525,0H156.63a21.89488,21.89488,0,0,0-21.83063,21.8307v.00007A21.89481,21.89481,0,0,0,156.63,43.6614h7.88331v.146a19.04976,19.04976,0,0,1,16.748,18.84515v.00007a19.04964,19.04964,0,0,1-16.748,18.84507v.14605H126.30954a21.94968,21.94968,0,0,0-20.10816,13.35423,21.63007,21.63007,0,0,0-1.72255,8.47639v.00007a21.82381,21.82381,0,0,0,.11326,2.22384,21.60164,21.60164,0,0,0,1.60929,6.25262,21.85852,21.85852,0,0,0,2.01894,3.70737,22.109,22.109,0,0,0,4.22361,4.6457,21.71389,21.71389,0,0,0,13.8656,5.00117h6.06408c18.79866,0,7.2769,21.8307,33.35247,21.8307H316.72188a21.89224,21.89224,0,0,0,21.83063-21.83063V125.305c0-.54415-.03331-1.08209-.08232-1.61655a21.88764,21.88764,0,0,0-21.74832-20.21408h-8.49653c-18.37184,0-6.05735-21.8307-35.165-21.8307H254.26173v-.60759A19.0491,19.0491,0,0,1,239.93555,62.65259Z" style="fill:#dbfef7"/></g><path d="M393.372,598.88979A18.04694,18.04694,0,0,0,375.44,582.22274h-7.00562c-15.14807,0-4.99445-18-28.99445-18H303.67385v-.00006l-85.23395.00006a18.0981,18.0981,0,0,0-16.57971,11.01093,17.83458,17.83458,0,0,0-1.42029,6.989v.00006a17.99432,17.99432,0,0,0,.09338,1.83362,17.81114,17.81114,0,0,0,1.3269,5.15546,18.02294,18.02294,0,0,0,1.66467,3.05682,18.22945,18.22945,0,0,0,3.48248,3.83051,17.90368,17.90368,0,0,0,11.43256,4.1236h5c15.5,0,6,18,27.5,18H375.44A18.05074,18.05074,0,0,0,393.4399,600.2228v-.00012C393.4399,599.774,393.41244,599.33046,393.372,598.88979Z" style="fill:#dbfef7;opacity:0.39"/></svg>